<svg xmlns="http://www.w3.org/2000/svg" width="16.875" height="11.25" viewBox="0 0 16.875 11.25">
  <path id="bets" d="M16.875-7.031a1.356,1.356,0,0,0-1,.41,1.356,1.356,0,0,0-.41,1,1.356,1.356,0,0,0,.41,1,1.356,1.356,0,0,0,1,.41v2.813a1.356,1.356,0,0,1-.41,1,1.356,1.356,0,0,1-1,.41H1.406a1.356,1.356,0,0,1-1-.41,1.356,1.356,0,0,1-.41-1V-4.219a1.356,1.356,0,0,0,1-.41,1.356,1.356,0,0,0,.41-1,1.356,1.356,0,0,0-.41-1,1.356,1.356,0,0,0-1-.41V-9.844a1.356,1.356,0,0,1,.41-1,1.356,1.356,0,0,1,1-.41H15.469a1.356,1.356,0,0,1,1,.41,1.356,1.356,0,0,1,.41,1ZM11.382-1.538a.456.456,0,0,0,.337.132.456.456,0,0,0,.337-.132.456.456,0,0,0,.132-.337.456.456,0,0,0-.132-.337.456.456,0,0,0-.337-.132.456.456,0,0,0-.337.132.456.456,0,0,0-.132.337A.456.456,0,0,0,11.382-1.538Zm0-1.875a.456.456,0,0,0,.337.132.456.456,0,0,0,.337-.132.456.456,0,0,0,.132-.337.456.456,0,0,0-.132-.337.456.456,0,0,0-.337-.132.456.456,0,0,0-.337.132.456.456,0,0,0-.132.337A.456.456,0,0,0,11.382-3.413Zm0-1.875a.456.456,0,0,0,.337.132.456.456,0,0,0,.337-.132.456.456,0,0,0,.132-.337.456.456,0,0,0-.132-.337.456.456,0,0,0-.337-.132.456.456,0,0,0-.337.132.456.456,0,0,0-.132.337A.456.456,0,0,0,11.382-5.288Zm0-1.875a.456.456,0,0,0,.337.132.456.456,0,0,0,.337-.132.456.456,0,0,0,.132-.337.456.456,0,0,0-.132-.337.456.456,0,0,0-.337-.132.456.456,0,0,0-.337.132.456.456,0,0,0-.132.337A.456.456,0,0,0,11.382-7.163Zm0-1.875a.456.456,0,0,0,.337.132.456.456,0,0,0,.337-.132.456.456,0,0,0,.132-.337.456.456,0,0,0-.132-.337.456.456,0,0,0-.337-.132.456.456,0,0,0-.337.132.456.456,0,0,0-.132.337A.456.456,0,0,0,11.382-9.038Z" transform="translate(0 11.25)" fill="#8d8d8d"/>
</svg>
