<svg xmlns="http://www.w3.org/2000/svg" width="35.977" height="32.016" viewBox="0 0 35.977 32.016">
  <path id="error" d="M35.625-.5a3.171,3.171,0,0,1,.313,2.031,3,3,0,0,1-1,1.75A2.826,2.826,0,0,1,33,4H3a2.826,2.826,0,0,1-1.937-.719,3,3,0,0,1-1-1.75A3.171,3.171,0,0,1,.375-.5l15-26a2.8,2.8,0,0,1,1.594-1.344,3.18,3.18,0,0,1,2.063,0A2.8,2.8,0,0,1,20.625-26.5ZM18-5.875a2.769,2.769,0,0,0-2.031.844A2.769,2.769,0,0,0,15.125-3a2.769,2.769,0,0,0,.844,2.031A2.769,2.769,0,0,0,18-.125a2.769,2.769,0,0,0,2.031-.844A2.769,2.769,0,0,0,20.875-3a2.769,2.769,0,0,0-.844-2.031A2.769,2.769,0,0,0,18-5.875ZM15.25-16.187l.5,8.5a.657.657,0,0,0,.219.469A.723.723,0,0,0,16.5-7h3a.723.723,0,0,0,.531-.219.657.657,0,0,0,.219-.469l.5-8.5a.8.8,0,0,0-.219-.594A.723.723,0,0,0,20-17H16a.723.723,0,0,0-.531.219A.8.8,0,0,0,15.25-16.187Z" transform="translate(-0.012 28.016)" fill="#ecc759"/>
</svg>
