<svg xmlns="http://www.w3.org/2000/svg" width="892" height="892" viewBox="0 0 892 892">
  <g id="cs" transform="translate(4526 -12177)">
    <rect id="Rectangle_1124" data-name="Rectangle 1124" width="892" height="892" rx="90" transform="translate(-4526 12177)" fill="#ffdc35" opacity="0.25"/>
    <path id="Path_11291" data-name="Path 11291" d="M729.236,188.9V148.126l-5.576,40.422-11.144-6.626H551.184l-2.788,9.059-13.237-2.78s-2.788-12.2-2.788-13.592.7-11.152.7-11.152l10.449-.348,9.122-10.8-3.2-24.736-5.568-11.847-10.8-12.89L513.2,97.6H496.83l-17.771,5.576-8.633,8.364-6.7,11.144-2.788,11.847V144.3s2.085,10.449,2.432,11.5,3.491,8.009,3.491,8.009l-1.745,6.974h-2.093c-1.042,0-39.371,4.873-40.761,6.619s-17.771,16.372-18.821,19.508-6.271,17.423-6.271,17.423a41.61,41.61,0,0,0-2.093,12.194c0,6.279.7,11.847,1.051,20.558s-2.441,18.473-2.093,21.261-1.746,10.449-1.746,10.449l-25.431-2.44,2.093,64.811,12.889,3.135,2.441,11.5H369.3l-2.44,59.93L365.115,533.5l-8.712,23s-18.813,18.466-19.16,20.559-7.322,22.643-7.669,25.084-3.831,18.118-3.831,18.118l-5.924,42.167s-5.923,19.856-6.271,21.6-3.135,3.831-4.186,5.229-4.873,35.193-4.873,36.931-2.093,10.8,6.271,11.5,35.193-.695,39.024-2.788,12.195-1.043,6.966-10.449S344.9,705.281,344.9,701.1s4.186-27.532,7.669-32.753,12.542-17.77,16.381-24.041,17.771-44.252,17.771-44.252,1.738-21.261,2.78-24.049,14.99-16.373,17.423-19.855S425.4,519.56,425.4,518.17a180.1,180.1,0,0,1,3.135-19.863c1.39-5.576,13.932-26.134,14.983-27.177s2.44-5.229,4.525-3.831,54.362,65.853,70.734,72.124,15.33,24.041,13.94,26.134-9.059,30.66-7.669,32.753,7.013,43.21,8.387,43.557,7.646,8.712,7.993,11.5-1.05,29.965-1.05,29.965a46.623,46.623,0,0,0-6.942,13.584,29.417,29.417,0,0,0,0,16.728c1.019,3.483,10.078,8.364,10.078,8.364h84.674s-11.152-18.821-15.33-20.211S576.276,678.1,576.276,678.1s-3.143-34.151-3.143-36.583,6.279-43.9,6.279-43.9,4.525-69.344,4.178-71.082-8.712-23.347-8.712-23.347-32.058-63.065-58.192-91.64c0,0-1.39-23.694,0-24.041s24.4-1.051,24.4-1.051l1.042-77.353s-8.711-1.043-8.711-5.576-1.042-11.144,0-11.847,12.542-5.924,16.728-1.738,33.8,23.346,33.8,23.346,11.847-2.441,13.245-3.136,20.906-9.406,20.906-9.406l10.1-17.075s6.618-16.033,6.618-17.423,1.745-17.77,2.44-20.558,3.136-13.245,4.534-15.677,6.618-14.982,9.059-16.728,11.5-6.966,13.932-6.966,49.829.348,49.829.348l1.745-5.576h84.667V189.938ZM581.267,264.274c-5.647,0,10.22-9.422,10.22-22.762s2.456-22.027,8.1-22.027,7.693,10.078,7.693,23.417S586.914,264.274,581.267,264.274Z" transform="translate(-4576.257 12205.267)" fill="#ffdc35"/>
  </g>
</svg>
