<svg xmlns="http://www.w3.org/2000/svg" width="892" height="892" viewBox="0 0 892 892">
  <g id="rainbow" transform="translate(3178 -15636)">
    <path id="Path_11794" data-name="Path 11794" d="M90,0H802a90,90,0,0,1,90,90V802a90,90,0,0,1-90,90H90A90,90,0,0,1,0,802V90A90,90,0,0,1,90,0Z" transform="translate(-3178 15636)" fill="#363639"/>
    <path id="Path_11795" data-name="Path 11795" d="M1585.147-515.692H1462.411c0-7.775-.044-15.238.01-22.7.079-11,.1-22,.42-32.992.1-3.42-1.166-5.529-3.787-7.5-13.343-10.014-28.527-10.188-40.4-.078-1.462,1.246-2.966,3.482-2.962,5.256.075,32.328.378,64.657.653,96.985,0,.257.289.512.693,1.185,3.893-7.649,10.941-10.707,18.393-12.363,34.1-7.577,68.121-7.834,101.652,2.967,16.2,5.219,30.122,14.177,40.164,28.322A40.793,40.793,0,0,1,1585.293-432c-.257,79.16.012,158.322-.22,237.482-.1,34.5-15.421,61.136-44.172,79.865-19.407,12.642-41.259,18.876-64.09,20.577-34.952,2.6-69.914,2.3-104.44-4.947a119.117,119.117,0,0,1-41.883-17.049c-26.255-17.441-39.738-41.86-39.735-73.553q.022-196.236.077-392.472c.062-41.924,19.609-72.035,57.318-90.249a154.379,154.379,0,0,1,63.7-15.369,663.958,663.958,0,0,1,72.828,1.909c23.542,2.019,45.531,10.2,64.212,25.329,23.683,19.186,35.824,44.24,36.2,74.734.267,21.328.052,42.663.052,63.994ZM1388.005-368.951c-1.428,2.01-3.5,3.845-4.108,6.078-.634,2.318-.567,6.82.438,7.217,2.944,1.163,2.623,3.063,2.624,5.13q.027,89.441-.005,178.881c0,1.132.056,3.018-.507,3.281-5.975,2.791-2.073,7.56-3.14,11.36,3.558.478,8.1-.1,9.013,1.457,1.909,3.264,4.243,2.516,6.654,2.552,6.494.1,12.991.04,19.487.03a8.819,8.819,0,0,0,9.1-9.223q.01-41.223,0-82.445c0-10.795,1.6-13.269,11.734-17.336a32.979,32.979,0,0,1,8.141-2.273c5.067-.62,10.191-.777,15.865-1.167v-5.311c0-13.325.156-26.652-.1-39.972-.073-3.856,1.131-5.9,4.824-6.7,11.676-2.557,23.274-5.538,35.03-7.634,6.965-1.242,14.171-1.125,21.738-1.652,0-15.193.082-30.151-.127-45.106-.02-1.493-1.53-3.286-2.821-4.386a24.644,24.644,0,0,0-23.43-5.257c-7.571,2.15-14.856,5.664-21.872,9.332-10.459,5.469-21.092,9.976-33.116,9.79-6.188-.1-11.558-2.371-14.414-8.2-1.365-2.788-3.129-3.437-5.87-3.273C1411.192-373.068,1398.824-376.243,1388.005-368.951Z" transform="translate(-4179.904 16472.266)" fill="#c8c8c8"/>
  </g>
</svg>
