<svg xmlns="http://www.w3.org/2000/svg" width="892" height="892" viewBox="0 0 892 892">
  <g id="rocket" transform="translate(5530 -15636)">
    <path id="Path_11791" data-name="Path 11791" d="M90,0H802a90,90,0,0,1,90,90V802a90,90,0,0,1-90,90H90A90,90,0,0,1,0,802V90A90,90,0,0,1,90,0Z" transform="translate(-5530 15636)" fill="#3290e5" opacity="0.25"/>
    <g id="Group_3800" data-name="Group 3800" transform="translate(-5391.036 15910.944)">
      <circle id="circle40" cx="65.327" cy="65.327" r="65.327" transform="translate(34.212 -90.24)" fill="#3290e5"/>
      <path id="Union_2" data-name="Union 2" d="M5460.576-15579.044c-9.483-14.75,6.321-20.018,20.021-20.018,114.846,4.213,236.018,66.378,258.144,121.167,4.217,11.593,6.321,29.506-11.592,41.094-30.555,21.075-55.844,32.664-71.648,40.039C5620.732-15413.621,5538.546-15445.23,5460.576-15579.044Zm53.735-51.627c-56.9-9.483-94.829-23.18-106.417-65.327-8.429-30.556-14.75-57.952-16.859-81.133,14.75,9.484,32.664,15.8,51.627,15.8,16.859,0,32.664-4.212,46.364-13.7v.182l13.078-10.128,9.3-7.2a91.506,91.506,0,0,0,21.878-59.77c0-16.859-4.216-32.664-12.646-46.364,35.826-7.375,81.132-12.643,134.868-12.643,154.889,0,232.859,40.039,264.468,62.165,3.163,32.664,7.375,105.366-35.822,206.517,0-1.055-1.054-3.163-1.054-4.213-6.321-24.234-35.826-52.686-79.024-61.115-10.111-1.682-22.912,0-32.485,5.05q-3.012,2.678-6.328,5.8c-21.643,20.438,2.352,51.04,2.352,51.04s1.08,1.916,2.577,4.709l.166-.221v-1.054c15.8,18.967,37.931,26.343,60.061,26.343,21.072,0,33.714,14.75,20.018,36.876-33.718,57.952-67.436,96.938-99.045,123.279C5759.813-15514.771,5639.7-15610.653,5514.312-15630.671Z" transform="translate(-5344.95 15831.112)" fill="#3290e5" stroke="rgba(0,0,0,0)" stroke-miterlimit="10" stroke-width="1"/>
    </g>
  </g>
</svg>
