<svg xmlns="http://www.w3.org/2000/svg" width="892" height="892" viewBox="0 0 892 892">
  <g id="kings" transform="translate(4331 -15636)">
    <path id="Path_11790" data-name="Path 11790" d="M90,0H802a90,90,0,0,1,90,90V802a90,90,0,0,1-90,90H90A90,90,0,0,1,0,802V90A90,90,0,0,1,90,0Z" transform="translate(-4331 15636)" fill="#f8d560" opacity="0.25"/>
    <g id="Group_3808" data-name="Group 3808" transform="matrix(1, -0.017, 0.017, 1, -4275.897, 15854.902)">
      <path id="Path_11796" data-name="Path 11796" d="M386.281-73.179l-.762,88.312S311.271,29.149,281.857,63.468s-110.687,233.259,99.458,288.6l.7,145.007s7.014-39.226-77.749-72.855c0,0-63.042-18.208-110.676-81.953l11.206-7.7-20.315-18.922-4.906,4.2s-86.859-92.456-7-258.481l10.5,12.611L209.7,29.149,203.394,17.24S305.722-81.586,386.281-73.179Z" transform="translate(0 49.386)" fill="#f8d560"/>
      <path id="Path_11797" data-name="Path 11797" d="M161.861,493.241l1.965-89.526s74.26-14,103.674-48.336,110.676-233.259-99.47-288.6l-.7-145s-7,39.226,77.761,72.843c0,0,63.042,18.22,110.676,81.965l-11.206,7.7,20.315,18.91,4.895-4.2s86.871,92.468,7.014,258.481l-10.515-12.611L339.652,389.71l6.3,11.908S242.421,501.648,161.861,493.241Z" transform="translate(251.428)" fill="#f8d560"/>
    </g>
  </g>
</svg>
