<svg xmlns="http://www.w3.org/2000/svg" width="892" height="892" viewBox="0 0 892 892">
  <g id="dota" transform="translate(4527 -14301)">
    <rect id="Rectangle_1129" data-name="Rectangle 1129" width="892" height="892" rx="90" transform="translate(-4527 14301)" fill="#df402e" opacity="0.25"/>
    <g id="_001-dota-2" data-name="001-dota-2" transform="translate(-4327 14490.201)">
      <g id="Group_3243" data-name="Group 3243">
        <path id="Path_11292" data-name="Path 11292" d="M491.6,0H430.589l-25.4,12.7L379.779,0H260.2L231.4,14.4H151.783L122.978,0H0V231.4l14.4,28.8v79.614L0,368.62V491.6H245.8l25.4-12.7,25.4,12.7H491.6V296.608l-12.7-25.4,12.7-25.4ZM129.62,405.184,86.414,361.977V275.564l129.62,129.62Zm261.161,0H333.173l-37.336-43.873-7.7-31.27-29.636-12.6-12.7-14.926L86.414,115.218l28.8-28.8L245.8,184.565l159.385,119.8Zm14.4-189.15L275.564,86.414h86.414l43.207,43.207Z" fill="#e0402e"/>
      </g>
    </g>
  </g>
</svg>
