<svg xmlns="http://www.w3.org/2000/svg" width="892" height="892" viewBox="0 0 892 892">
  <g id="xxxx" transform="translate(5530 -14239)">
    <path id="Path_11301" data-name="Path 11301" d="M90,0H802a90,90,0,0,1,90,90V802a90,90,0,0,1-90,90H90A90,90,0,0,1,0,802V90A90,90,0,0,1,90,0Z" transform="translate(-5530 14239)" fill="#262629"/>
    <g id="nologo" transform="translate(-5465.914 14425.083)">
      <path id="Path_24" data-name="Path 24" d="M37.914,14.917,311.275,536.979l2.732-522.062H37.914Z" transform="translate(71 10)" fill="#414141"/>
      <path id="Path_25" data-name="Path 25" d="M311.275,14.917,37.914,536.978l.08-522.062H311.275Z" transform="translate(344.361 10)" fill="#414141" opacity="0.67"/>
    </g>
  </g>
</svg>
