<svg xmlns="http://www.w3.org/2000/svg" width="892" height="892.001" viewBox="0 0 892 892.001">
  <g id="Overwatch_" data-name="Overwatch " transform="translate(-9230.911 397.178)">
    <g id="League_Of_Legends" data-name="League Of Legends" transform="translate(9230.911 -397.178)">
      <g id="League_of_Legends-2" data-name="League of Legends">
        <path id="Path_11300" data-name="Path 11300" d="M90,0H802a90,90,0,0,1,90,90V802a90,90,0,0,1-90,90H90A90,90,0,0,1,0,802V90A90,90,0,0,1,90,0Z" fill="#f60" opacity="0.25"/>
      </g>
    </g>
    <path id="Subtraction_2" data-name="Subtraction 2" d="M336.957,673.917a342.275,342.275,0,0,1-34.43-1.738,337.856,337.856,0,0,1-33.455-5.107c-10.857-2.223-21.719-5.014-32.289-8.3-10.454-3.253-20.87-7.063-30.958-11.329-10-4.245-19.9-9.021-29.456-14.189a322,322,0,0,1-27.79-16.88c-8.936-6.076-17.638-12.544-25.938-19.4s-16.333-14.152-23.927-21.756S83.8,559.564,76.96,551.286s-13.393-17.018-19.411-25.948-11.727-18.3-16.88-27.784-9.96-19.443-14.189-29.435c-4.245-10.082-8.082-20.5-11.329-30.958-3.29-10.57-6.081-21.438-8.3-32.29a337.821,337.821,0,0,1-5.1-33.43,341.987,341.987,0,0,1,.143-70.326A334.885,334.885,0,0,1,43.917,170.507c5.55-9.753,11.674-19.342,18.174-28.5a334.637,334.637,0,0,1,20.859-26.463c7.36-8.421,15.208-16.577,23.348-24.229l57.569,66.214A248.908,248.908,0,0,0,129,474.539L258.353,351.116,322.63,214.306V423.841L197.24,543.5a248.969,248.969,0,0,0,282.014-1.783L355.837,423.841V214.5l64.388,136.529L546.7,471.811a248.677,248.677,0,0,0-5.773-278.264A251.937,251.937,0,0,0,508.561,156.1l57.543-66.2c8.257,7.662,16.222,15.834,23.672,24.282s14.577,17.4,21.151,26.532A335.072,335.072,0,0,1,672,300.822a341.98,341.98,0,0,1,.175,70.576,337.828,337.828,0,0,1-5.1,33.431c-2.223,10.857-5.015,21.719-8.3,32.29-3.253,10.454-7.063,20.87-11.329,30.958-4.245,10-9.021,19.9-14.189,29.456a322.359,322.359,0,0,1-16.885,27.806c-6.076,8.936-12.544,17.639-19.4,25.938s-14.152,16.333-21.756,23.927-15.648,14.911-23.927,21.756-17.028,13.378-25.938,19.4-18.3,11.727-27.784,16.88S478.1,643.2,468.1,647.428c-10.082,4.245-20.5,8.082-30.958,11.329-10.57,3.29-21.438,6.081-32.289,8.3a337.823,337.823,0,0,1-33.43,5.1,342.34,342.34,0,0,1-34.47,1.751ZM183.22,140.669h0L125.667,74.46c7.206-5.811,14.741-11.388,22.393-16.572s15.675-10.162,23.757-14.715,16.54-8.867,25.009-12.735,17.336-7.5,26.161-10.666,18.042-6.055,27.2-8.49c9.238-2.457,18.705-4.537,28.124-6.193,9.546-1.677,19.289-2.966,28.968-3.8C317.079.435,327.066,0,336.957,0A336.111,336.111,0,0,1,449.946,19.411c8.756,3.115,17.511,6.644,25.964,10.48s16.768,8.023,24.839,12.523,15.972,9.339,23.613,14.465,15.107,10.586,22.287,16.3l-57.58,66.23a248.736,248.736,0,0,0-305.845,1.263Z" transform="translate(9340.307 -288.507)" fill="#f60"/>
  </g>
</svg>
