<svg xmlns="http://www.w3.org/2000/svg" width="13.125" height="15" viewBox="0 0 13.125 15">
  <path id="account" d="M6.563-5.625a3.718,3.718,0,0,0,1.89-.5A3.648,3.648,0,0,0,9.814-7.485a3.718,3.718,0,0,0,.5-1.89,3.718,3.718,0,0,0-.5-1.89,3.648,3.648,0,0,0-1.362-1.362,3.718,3.718,0,0,0-1.89-.5,3.718,3.718,0,0,0-1.89.5,3.648,3.648,0,0,0-1.362,1.362,3.718,3.718,0,0,0-.5,1.89,3.718,3.718,0,0,0,.5,1.89A3.648,3.648,0,0,0,4.673-6.123,3.718,3.718,0,0,0,6.563-5.625ZM9.2-4.687H8.7a5.088,5.088,0,0,1-2.139.469,5.087,5.087,0,0,1-2.139-.469h-.5a3.842,3.842,0,0,0-1.963.527A3.893,3.893,0,0,0,.527-2.725,3.842,3.842,0,0,0,0-.762V.469a1.356,1.356,0,0,0,.41,1,1.356,1.356,0,0,0,1,.41H11.719a1.356,1.356,0,0,0,1-.41,1.356,1.356,0,0,0,.41-1V-.762A3.842,3.842,0,0,0,12.6-2.725,3.893,3.893,0,0,0,11.162-4.16,3.842,3.842,0,0,0,9.2-4.687Z" transform="translate(0 13.125)" fill="#8d8d8d"/>
</svg>
