<svg xmlns="http://www.w3.org/2000/svg" width="246.205" height="245.447" viewBox="0 0 246.205 245.447">
  <g id="Page-1" transform="translate(0 -0.098)">
    <g id="Option-A-Copy" transform="translate(0 0.097)">
      <g id="Asset-1" transform="translate(0 0)">
        <ellipse id="Oval" cx="96.122" cy="96.418" rx="96.122" ry="96.418" transform="matrix(0.005, -1, 1, 0.005, 26.234, 218.399)" fill="#46823c"/>
        <path id="Path" d="M15.645,117.732a4.435,4.435,0,0,1,2.418-1.529l-.531-.411c.817-.544,2.97-1.888,3.361-2.705,3.218-1.611,4.789.261,8.846-2.529V110.5c.711-.561,1.645-.353,2.477-.353,1.678,0,.809-4.24,1.179-5.41v-.059c1.308-1.144,2.709-.765,3.951-2.353,1.074-1.372,6.455-5.821,8.138-5.469,6.593-2.125,2.792-4.486,6.664-3.646.854.186,2.311-.924,1.914-1.9-.451-1.1-1.121-1.421-1.134-2.764-1.788-2.267-1.183-1.631-3.6-3.117-1.613-.992-1.626-3.438-3.368-4.77-.691-.01-.768-1.893-1.186-2.39h-.059l-.885-.882c.31-1.226-1.5-5.219-3.007-4.94-.8,1.069-2.282.242-3.067-.411-1.106-.921-.72-2.852-.707-4.116.526-.82.273-3.978,0-4.94-1.756-1.089-2.534-3.821-4.895-1.705-4.3-1.537-.1-.933-2.359-3.528l.236-.353h.354c.334-.488.079-1.157-.118-1.646l-.413-.294a5.08,5.08,0,0,1,.707-1.234l.295-.118.2-.5c.235-.737-.538-.384-.965-.615-.964-.523.436-2.862.825-3.469-1.326-3.434.046-2.964,2.654-3.116.743-.74,2.5-2.476,2.713-3.47.163-.773-.809-.985-.59-1.764a1.139,1.139,0,0,1,1.356,0l.354-.059.59-.823h.059v-.176l.1-.47c-.357-.822-1.793-2.351-1.514-3.234a8.31,8.31,0,0,1-2.359-4.058c-1.86.66.2-1.964.708-2.293.089-1.053,4.97-1.785,4.6-3.116a28.054,28.054,0,0,1,3.243-3.352c.587-1-1.749,1.195-1.356.059.434-1.257,1.405-1.564,2.417-2.235l.119-.353c2.568-.982,3.293-4.259,4.658-6.351L48.255,14l.708-1.647c.067,0,1.392-2.677,1.769-3.116.672-.157,1.752-.883,1.474-1.705h-.059l.059-.177c.6-.326,2.255-.327,1.888-1.411l.236-.353a4.538,4.538,0,0,0,3.3-.882c4.315,4.256,10.761,5.262,15.156,9.409h.059c1.63,1.1,3.3,2.152,5.013,3.116v.059c5.492,3.372,11.219,6.337,16.748,9.643h.059c1.524.9,4.861,3.382,6.487,3.47-.422,3.2-.4,6.172-1.559,8.99-1.8,4.351-4.952,8.274-5.458,11.651l-.767-.059c-.621.82-3.194,2.966-2.654,4.058-.943,1.318-3.767.454-5.13.529-1.9.106-.832,5.232-2,6.41l-.708-.118-.943.647a5.91,5.91,0,0,0,.118,2.058c-.856,1.147-2.186,2.739-.826,4.058a14.371,14.371,0,0,1,2.889,1.235l.177.47-.059.353A9.229,9.229,0,0,1,86,69.276v.647l.294-.294.944.235V69.8l.531-.176c.658-.822,4.135,1.6,4.836,2.058h.059a6.236,6.236,0,0,0,3.008.705,3.6,3.6,0,0,0-1.062-4.352l.177-.293c4.321-.4,4.406,15.457,3.879,18.009l-1.047,9.388c-.987,1.312-2.209,9.619-2.209,16.226-.283,1.572-.933,2.767-1.861,2.2-.565-.343-1.375-2.051-1.86-2.665l1.86-2.666.2-6.95s-1.981-3.459-2.332-1.634c-2.752.7-2.461,4.937-2.752,7.889-.313,3.17.648,7.77-.045,10.892a84.224,84.224,0,0,1-7.629,19.475c-1.744,3.825-2.441-3.476-7.906-2.2l-.813,1.159,1.416,2.378,3.956.059c1.078,1.533-3.1,6.13-4.266,7.122.2,1.349-6.926,4.734-8.079,6l-5.308,5.822c-.079.9-1.861,3.227-2.417,4.116v.059c-.5.75-2,2.515-.826,3.293l-.059.353c-1.194,1.208-4.872,5.7-4.541,7.351l-.354.588c-1.768.658-2.921,2.241-4.069,3.646v-.059l-.294-.176c-1.007.226-1.823,1.058-2.889,1.058-.792,0-1.564-.239-2.359-.176l-.472-.647a25.559,25.559,0,0,1,1.946-6.763c1.03-1.967,4.079-7.077,2.654-9.174h-.059l-.708-.823c-1.348-.322-2.572-1.084-3.951-1.294-.976-.148-2.022.288-2.949-.176l.059-.353.236-.235-.118-.53-.885-.411-.353.294c-.63-.381-1.512-.008-2.123.235l-1.179-.235q-.784,1.176-1.651,2.293l-1.652-1.646c.239-2.012-.632-3.19-2.182-4.352a3.556,3.556,0,0,1-1.946-.823h-.059l-.118-.294c.619-1.012-.716-1.734-1.533-1.881l-.531.353H24.55l-.354.705c-.768-.851-2.527-5.647-4.186-3.764-1.215-.944-1.672-2.641-3.184-3.234v-.059c-.692-.479-2.849-1.541-2.824-2.372-.925.235-1.646-1.977-1.894-2.862l-1.592-.117a3.737,3.737,0,0,1-.295-2.588l.826-.059c-.335-.759,0-1.9.059-2.705l-.236-.059c-.232-.772,2.632-3.533.354-3.411a19.219,19.219,0,0,0-1.533-1.294,4.913,4.913,0,0,1-.118-2.352l.295-.236h.059l1-.822v-.059a4.092,4.092,0,0,0,1.3-3.116l.707-.471c.034-.085.834-1.705,1-.882a12.836,12.836,0,0,1,1.77-4.234Z" transform="translate(63.538 30.807)" fill="#0d4005"/>
        <path id="Shape" d="M240.077,119.975a119.638,119.638,0,1,1-35.1-84.466,119.454,119.454,0,0,1,35.1,84.466Zm-216.246,0a96.271,96.271,0,1,1,28.241,67.97A96.122,96.122,0,0,1,23.832,119.975Z" transform="translate(2.848 2.753)" fill="#0d4005" fill-rule="evenodd"/>
        <path id="Shape-2" data-name="Shape" d="M15.965,54.668,4.293,43.818l5.6-5.991a11.907,11.907,0,0,1,2.67-2.28,3.73,3.73,0,0,1,2.393-.431,4.5,4.5,0,0,1,3.771,5.4,5.944,5.944,0,0,1-.72,1.695,4.891,4.891,0,0,1,1.3-.535,4.943,4.943,0,0,1,1.15,0,6.257,6.257,0,0,1,1.2.171l5.005,1.389-3.8,4.063L17.51,45.9A3.718,3.718,0,0,0,16,45.719a2.072,2.072,0,0,0-1.094.63l-.3.317L19.34,51.06ZM12.411,44.62l1.42-1.518a7.412,7.412,0,0,0,.733-1.1,1.3,1.3,0,0,0,.179-.926,1.622,1.622,0,0,0-1.672-1.309,2.962,2.962,0,0,0-1.56,1.061l-1.48,1.582ZM18.87,29.011l10.538-7.916L31.46,23.81l-6.586,4.947L26.4,30.78l6.106-4.587,1.958,2.591-6.106,4.587,1.891,2.5,6.782-5.095,2.173,2.875L28.475,41.717ZM38.744,27.49l4-2.448A3.544,3.544,0,0,0,44.1,26.277a2.617,2.617,0,0,0,2.374-.169,2.4,2.4,0,0,0,1.2-1.2,1.419,1.419,0,0,0-1.032-2,6.275,6.275,0,0,0-2.658.365A10.755,10.755,0,0,1,39,23.734a3.888,3.888,0,0,1-2.673-2.056,4.153,4.153,0,0,1-.46-2.376,4.705,4.705,0,0,1,1.086-2.515,10.013,10.013,0,0,1,3.17-2.386,8.033,8.033,0,0,1,4.651-1.18,4.921,4.921,0,0,1,3.388,2.3L44.2,17.928A2.524,2.524,0,0,0,42.767,16.9a2.491,2.491,0,0,0-1.678.332,1.975,1.975,0,0,0-.972.927,1.11,1.11,0,0,0,.032.984.893.893,0,0,0,.632.438,3.977,3.977,0,0,0,1.729-.253,20.694,20.694,0,0,1,4.747-.925,4.877,4.877,0,0,1,2.626.606,4.479,4.479,0,0,1,1.67,1.782,5.031,5.031,0,0,1,.58,2.889,5.277,5.277,0,0,1-1.171,2.839,9.566,9.566,0,0,1-3.075,2.386q-3.592,1.9-5.71,1.258A6.174,6.174,0,0,1,38.744,27.49ZM52.092,9.022l7.8-2.527a5.627,5.627,0,0,1,4.212-.027A4.774,4.774,0,0,1,66.5,9.5a4.9,4.9,0,0,1-.216,4.035,6.307,6.307,0,0,1-3.805,2.661l-2.571.833,1.825,5.6-4.706,1.524Zm6.814,4.942,1.156-.375A3.141,3.141,0,0,0,61.826,12.5a1.588,1.588,0,0,0,.159-1.383,1.767,1.767,0,0,0-.873-1.055,2.627,2.627,0,0,0-1.964.087l-1.344.435ZM71.462,11.4a8.172,8.172,0,0,1,1.31-6.306,8.207,8.207,0,0,1,5.7-2.989A8.367,8.367,0,0,1,84.853,3.36a8.026,8.026,0,0,1,2.969,5.614,9.753,9.753,0,0,1-.294,4.658,6.693,6.693,0,0,1-2.308,3.127,9.007,9.007,0,0,1-4.255,1.6,10.244,10.244,0,0,1-4.546-.228A6.724,6.724,0,0,1,73.2,15.842,8.981,8.981,0,0,1,71.462,11.4Zm4.88-.672a5.3,5.3,0,0,0,1.374,3.3,3.42,3.42,0,0,0,4.869-.66,5.857,5.857,0,0,0,.348-3.783A4.9,4.9,0,0,0,81.573,6.46a3.124,3.124,0,0,0-2.591-.682,3.007,3.007,0,0,0-2.229,1.374,5.318,5.318,0,0,0-.411,3.572ZM93.711,1.036l4.592.32,5.355,9.178.615-8.762,4.648.324-1.114,15.87-4.647-.324L97.834,8.514l-.611,8.714L92.6,16.906Zm18.566,12.192,4.612.846a3.53,3.53,0,0,0,.182,1.826,2.609,2.609,0,0,0,1.878,1.457,2.418,2.418,0,0,0,1.7-.087,1.418,1.418,0,0,0,.576-2.175,6.255,6.255,0,0,0-2.22-1.5,10.718,10.718,0,0,1-4.015-2.987,3.868,3.868,0,0,1-.607-3.311,4.16,4.16,0,0,1,1.253-2.073,4.735,4.735,0,0,1,2.5-1.144,10.045,10.045,0,0,1,3.957.342,8.017,8.017,0,0,1,4.248,2.226,4.891,4.891,0,0,1,.977,3.966l-4.564-.853a2.511,2.511,0,0,0-.373-1.715,2.489,2.489,0,0,0-1.47-.872,1.982,1.982,0,0,0-1.344.04,1.113,1.113,0,0,0-.637.752.889.889,0,0,0,.176.747,3.97,3.97,0,0,0,1.456.965,20.656,20.656,0,0,1,4.149,2.479,4.857,4.857,0,0,1,1.545,2.2,4.47,4.47,0,0,1,.045,2.438,5.046,5.046,0,0,1-1.508,2.534,5.321,5.321,0,0,1-2.776,1.329,9.605,9.605,0,0,1-3.887-.278q-3.947-.981-5.087-2.874a6.14,6.14,0,0,1-.757-4.279Zm21.478-5.047,4.619,1.768L132.655,24.8l-4.62-1.768Zm10.55,4.158,8.08,4.465a5.028,5.028,0,0,1,2.547,2.71,3.68,3.68,0,0,1-.291,3.066,3.567,3.567,0,0,1-1.949,1.691,3.94,3.94,0,0,1-2.022.1,4.446,4.446,0,0,1,1.523,2.461,3.884,3.884,0,0,1-.518,2.6,4.344,4.344,0,0,1-1.586,1.666,4.26,4.26,0,0,1-2.141.6,5.227,5.227,0,0,1-1.891-.45,21.566,21.566,0,0,1-2.039-.879l-7.448-4.116Zm1.311,7.863,1.88,1.039a2.479,2.479,0,0,0,1.6.431,1.449,1.449,0,0,0,.954-.784,1.36,1.36,0,0,0,.132-1.17,2.432,2.432,0,0,0-1.189-1.1l-1.909-1.055Zm-3.037,5.461,2.2,1.216a2.776,2.776,0,0,0,1.791.475,1.521,1.521,0,0,0,1.046-.805,1.4,1.4,0,0,0,.1-1.242,2.888,2.888,0,0,0-1.378-1.251l-2.191-1.211Zm19.6-2.605,3.828,3.09-7.575,9.325,5.994,4.838-2.469,3.039-9.822-7.929ZM176.01,34.672l8.829,9.776L182.3,46.723l-5.518-6.11L174.9,42.307l5.116,5.664-2.419,2.171-5.115-5.664-2.336,2.1,5.683,6.292-2.684,2.409-8.993-9.957Z" transform="translate(28.768 6.193)" fill="#fd0" fill-rule="evenodd"/>
        <path id="Shape-3" data-name="Shape" d="M16.914,38.544l1.4-3,6.909,3.211-2.869,6.134a15.659,15.659,0,0,1-4.366.206A13.14,13.14,0,0,1,14.148,43.9a9.694,9.694,0,0,1-3.788-2.826,6.592,6.592,0,0,1-1.3-3.774,9.418,9.418,0,0,1,.965-4.387,9.149,9.149,0,0,1,2.9-3.65,6.987,6.987,0,0,1,4.1-1.32,10.3,10.3,0,0,1,4.28,1.141,12.225,12.225,0,0,1,3.382,2.1,5.1,5.1,0,0,1,1.344,2.259,6.564,6.564,0,0,1,.1,2.854L21.465,35.07a2.577,2.577,0,0,0-.314-1.676,3.093,3.093,0,0,0-1.418-1.189,3.235,3.235,0,0,0-2.817-.071,5.406,5.406,0,0,0-2.378,2.812,5.558,5.558,0,0,0-.681,3.751,3.409,3.409,0,0,0,1.989,2.144,5.173,5.173,0,0,0,1.529.449,8.5,8.5,0,0,0,1.9-.009l.631-1.348ZM37.258,48.916l-5.4-1.442L30.406,49.8l-4.863-1.3,9.931-13.818,5.215,1.393,1.647,16.911-4.987-1.332Zm-.116-3.6-.2-5.974-3.174,5.073Zm11.23-7.552,6.487.453,1.8,9.83,3.155-9.485,6.461.451-1.114,15.87L61.133,54.6l.849-12.1L58.028,54.389l-3.646-.255-2.25-12.316-.849,12.1-4.025-.28Zm21.644.441,4.911-.6L76.872,53.4,71.96,54Zm8.709-.884,4.467-1.11,7.938,7.079L89,34.77l4.52-1.124,3.861,15.437-4.521,1.124-7.894-7.04,2.12,8.476-4.5,1.118Zm29.8.912-1.4-3,6.909-3.211,2.869,6.133a15.562,15.562,0,0,1-2.647,3.467,13.118,13.118,0,0,1-3.387,2.168,9.716,9.716,0,0,1-4.606,1.076,6.632,6.632,0,0,1-3.733-1.435,9.439,9.439,0,0,1-2.751-3.556,9.127,9.127,0,0,1-.943-4.557,6.944,6.944,0,0,1,1.62-3.978A10.28,10.28,0,0,1,104.08,28.8a12.271,12.271,0,0,1,3.787-1.234,5.162,5.162,0,0,1,2.6.426,6.6,6.6,0,0,1,2.257,1.759l-3.941,2.772a2.6,2.6,0,0,0-1.49-.837,3.1,3.1,0,0,0-1.825.319,3.217,3.217,0,0,0-1.865,2.105,5.383,5.383,0,0,0,.633,3.623,5.579,5.579,0,0,0,2.444,2.932,3.426,3.426,0,0,0,2.926-.14,5.164,5.164,0,0,0,1.327-.879,8.517,8.517,0,0,0,1.214-1.456l-.631-1.348Z" transform="translate(60.716 183.846)" fill="#ebf904" fill-rule="evenodd"/>
        <path id="Shape-4" data-name="Shape" d="M216.246,122.826a93,93,0,1,1-27.282-65.659,92.856,92.856,0,0,1,27.282,65.659Zm-189.566,0A96.271,96.271,0,1,1,54.921,190.8,96.122,96.122,0,0,1,26.68,122.826Zm216.246,0a119.638,119.638,0,1,1-35.1-84.466,119.454,119.454,0,0,1,35.1,84.466ZM0,122.826A122.909,122.909,0,1,1,36.056,209.6,122.719,122.719,0,0,1,0,122.826Z" transform="translate(0 -0.097)" fill="#fd0" fill-rule="evenodd"/>
        <path id="Shape-5" data-name="Shape" d="M157.253,33.74a1.42,1.42,0,0,1-1.883.732c-8.783-4.028-14.348-5.439-21.95-4.548-8.543,1-13.834,4.454-17.344,8.611-2.659,3.147-5.728,11.081-5.728,16.577,0,10.122,1.072,16.837,4.933,22.623,4.207,6.309,10.413,7.593,20.492,7.593a30.516,30.516,0,0,0,5.5-.605V70.151H126.36a1.439,1.439,0,0,1-1.4-1.4V51.826a1.44,1.44,0,0,1,1.4-1.4h35.682a1.44,1.44,0,0,1,1.4,1.4V98.45a1.794,1.794,0,0,1-.98,1.334c-4.567,1.448-8.286,2.759-12.722,3.773a87.837,87.837,0,0,1-17.146,2c-13.761.461-25.793-3.866-34.746-13.367-8.484-9-10.644-21.843-10.644-35.219,0-13.914,4.3-25.31,12.97-34.052,8.7-8.768,20.039-12.611,33.829-12.611,7.77,0,19.726,1.445,29.117,6.007a1.48,1.48,0,0,1,.681,1.8ZM5.784,12.976a1.44,1.44,0,0,1,1.4-1.4H34.711c10.239,0,17.433,1.79,21.553,3.538A24.829,24.829,0,0,1,71.084,37.528c0,6.1-.983,12.421-4.149,16.808a29.559,29.559,0,0,1-11.318,9.981l25.361,37.926c.762,1.139.2,2.176-1.168,2.176H56.621a2.335,2.335,0,0,1-1.21-.689L35.447,69.971H28.891v32.581a1.44,1.44,0,0,1-1.4,1.4H7.188a1.44,1.44,0,0,1-1.4-1.4ZM28.891,50.711h7.95c8.417,0,11.573-3.888,11.573-10.072,0-5.583-2.829-9.8-10.425-9.8h-9.1Z" transform="translate(38.757 68.297)" fill="#0d4005" fill-rule="evenodd"/>
        <path id="Shape-6" data-name="Shape" d="M156.949,33.256a1.42,1.42,0,0,1-1.883.732c-8.784-4.028-14.348-5.439-21.95-4.547-8.543,1-13.834,4.454-17.344,8.611-2.659,3.147-5.728,11.08-5.728,16.577,0,10.122,1.072,16.837,4.933,22.623,4.207,6.308,10.412,7.592,20.492,7.592a30.379,30.379,0,0,0,5.5-.605V69.667H126.057a1.44,1.44,0,0,1-1.4-1.4V51.341a1.439,1.439,0,0,1,1.4-1.4h35.681a1.439,1.439,0,0,1,1.4,1.4V97.965a1.793,1.793,0,0,1-.979,1.335c-4.567,1.447-8.286,2.759-12.722,3.773a87.955,87.955,0,0,1-17.146,2c-13.761.461-25.793-3.866-34.746-13.367-8.484-9-10.644-21.843-10.644-35.22,0-13.914,4.3-25.31,12.97-34.052,8.7-8.768,20.038-12.61,33.828-12.61,7.77,0,19.726,1.446,29.118,6.007a1.48,1.48,0,0,1,.681,1.8ZM5.48,12.492a1.44,1.44,0,0,1,1.4-1.4H34.407c10.239,0,17.432,1.79,21.553,3.537A24.831,24.831,0,0,1,70.78,37.044c0,6.1-.983,12.421-4.149,16.807a29.561,29.561,0,0,1-11.318,9.982l25.361,37.926c.762,1.139.2,2.176-1.169,2.176H56.317a2.328,2.328,0,0,1-1.21-.688L35.142,69.486H28.586v32.582a1.44,1.44,0,0,1-1.4,1.4H6.885a1.44,1.44,0,0,1-1.4-1.4ZM28.586,50.227h7.951c8.417,0,11.573-3.888,11.573-10.072,0-5.583-2.829-9.8-10.425-9.8h-9.1Z" transform="translate(36.721 65.049)" fill="#fd0" fill-rule="evenodd"/>
      </g>
    </g>
  </g>
</svg>
