<?xml version="1.0" encoding="utf-8"?>
<!-- Generator: Adobe Illustrator 25.4.1, SVG Export Plug-In . SVG Version: 6.00 Build 0)  -->
<svg version="1.1" id="Layer_1" xmlns="http://www.w3.org/2000/svg" xmlns:xlink="http://www.w3.org/1999/xlink" x="0px" y="0px"
	 viewBox="0 0 2558.1 827.2" style="enable-background:new 0 0 2558.1 827.2;" xml:space="preserve">
<style type="text/css">
	.st0{fill:#FFFFFF;}
</style>
<g>
	<g>
		<path class="st0" d="M1825.7,507.9c-10.5-47.4-38.5-83.5-74.8-113.9c-22.3-18.7-46.9-34.1-72.7-47.4
			c-24.9-12.9-50.3-24.8-74.6-38.9c-19.1-11.1-38.2-22.2-52.3-39.8c-7.9-9.9-13.1-21.2-11.5-34c2.1-17.1,10.9-30.7,24.8-41.1
			c21.9-16.4,47.4-21.7,73.9-23.8c16.7-1.3,33.5-1.1,50.3-0.2c20.8,1.1,41.3,4,61.5,8.7c26.8,6.2,52.3,16.1,77.2,27.7
			c4,1.9,5,1,5.6-2.9c2.1-13.3,4.3-26.5,6.4-39.7c3.8-23.4,7.5-46.8,11.3-70.2c2.9-17.7,5.7-35.3,8.9-52.9c0.8-4.6-1-6.1-4.7-7.4
			c-26.6-9.6-53.7-17.2-81.5-22.5c-29.1-5.5-58.4-8.3-87.9-9.3c-21.8-0.7-43.5,0.7-65.2,2.7c-23.1,2.1-45.8,5.8-68.2,11.5
			c-52.8,13.4-101.7,35-143.1,71.2c-60,52.5-89.1,118.4-83.7,198.5c1.4,21.3,7.6,41.4,17,60.5c14.4,29.3,35.8,53,60.6,73.7
			c28.5,23.9,60.6,42.4,93.6,59.3c19.5,9.9,39.4,19.1,58.1,30.6c16.8,10.4,33.4,21.1,45.9,36.9c16.7,21,17.4,50,1.4,71.7
			c-8,11-18.6,18.9-30.6,25.1c-22.6,11.7-47.1,16.6-72.2,17.7c-23.4,1-46.8,0-70.1-2.6c-23.8-2.7-47.2-7.5-70-14.7
			c-29.7-9.3-58.1-21.7-86-35.3c-5.4-2.6-5.6-2.5-6.5,3.4c-5,31-10,62-15,93c-4.2,25.7-8.3,51.5-12.6,77.2c-0.5,2.8,0.1,4.4,2.8,5.4
			c6.2,2.4,12.2,5.1,18.5,7.3c46.7,16.5,95.1,25.3,144.2,30.4c22.6,2.4,45.4,3.8,69.2,3.1c17.1,0.9,35.2-0.5,53.2-2.2
			c22.2-2.1,44.2-5.6,65.9-10.6c37.9-8.7,74.2-21.8,107.9-41.3c29.1-16.9,54.7-37.9,75.9-64.2c15.6-19.3,27.9-40.3,36.9-63.3
			c9.2-23.7,14.3-48.2,16.2-73.6C1831.2,550.2,1830.3,529,1825.7,507.9z"/>
	</g>
	<g>
		<path class="st0" d="M941.2,14.8c-0.7,0-1.3,0-2,0c-67.6,0-135.3,0.1-202.9-0.1c-5.9,0-8.6,1.7-10.7,7.3
			C659.9,199.2,594,376.2,528.1,553.3c-0.7,1.7-0.8,3.9-3,5.2c-8.3-38.1-14.8-76.3-23.5-114c0,0,0,0,0,0c-0.2-1.6-0.3-3.3-0.6-4.9
			c-7.8-39.7-15.6-79.3-23.4-119c-15.6-79.1-31-158.3-46.9-237.4c-6.8-34-26.9-56.1-61.2-64.3c-12.1-2.9-24.3-4-36.6-4
			c-107.3,0-214.5,0-321.8,0c-1.2,0-2.3,0.1-3.5,0c-3-0.2-4.6,1.1-5.1,4.1C1.9,22.4,0.9,25.8,0,29.1c0,0.7,0,1.3,0,2
			c6.9,1,13.6,3.2,20.3,5.1C87.7,55.1,152.2,81,213,115.9c2.3,1.3,4.6,2.6,5.7,5.3c0.2,1,0.4,2,0.6,2.9
			c60.6,228.1,121.2,456.1,181.6,684.2c1.2,4.5,3.1,5.9,7.8,5.9c69-0.2,137.9-0.2,206.9,0c4.8,0,6.9-1.7,8.7-6
			c106.9-262.5,213.8-525,320.8-787.5C947.5,14.9,947.5,14.9,941.2,14.8z"/>
	</g>
	<g>
		<path class="st0" d="M1232.1,14.8c-13.3,0-26.6,0-40,0c-51.6,0-103.3,0-154.9,0c-3.2,0-6.1-0.4-6.8,4.3
			c-3.1,20.7-6.6,41.4-9.9,62.1c-10.5,64.8-21,129.7-31.5,194.5c-10.1,62.5-20.3,125.1-30.4,187.6c-10.2,62.9-20.4,125.7-30.5,188.6
			c-8.5,52.5-16.9,105.1-25.6,157.6c-0.8,4.6,0.2,5.6,4.8,5.6c32.6-0.2,65.3-0.1,97.9-0.1c32.8,0,65.6-0.1,98.4,0.1
			c3.8,0,5.5-0.9,6.1-5c3.7-24.5,7.8-48.9,11.8-73.4c10.2-62.7,20.3-125.4,30.5-188.1c9.8-60.6,19.6-121.1,29.4-181.7
			c9.8-60.7,19.7-121.5,29.5-182.2c8.8-54.5,17.7-109,26.5-163.5C1238.4,14.9,1238.3,14.8,1232.1,14.8z"/>
	</g>
	<g>
		<path class="st0" d="M2557.8,809.3c-21.6-102.7-43-205.4-64.5-308.1c-25.1-120.3-50.3-240.6-75.4-360.8
			c-8.4-40.2-16.8-80.4-25.1-120.6c-0.8-3.8-2.4-5.2-6.3-5.1c-9.7,0.3-19.3,0.1-29,0.1c-46.6,0.1-93.3-0.1-139.9,0.5
			c-18.1,0.2-35.7,4.5-51.7,13.5c-21,11.9-33.8,30.5-42.9,52.2c-35.1,83.8-70.2,167.5-105.4,251.2
			c-66.7,159-133.5,318.1-200.2,477.1c-2.3,5.5-2.3,5.5,3.8,5.5c68.5,0,136.9-0.1,205.4,0.1c4.8,0,6.6-1.7,8.1-5.8
			c13-36.3,26.3-72.6,39.2-108.9c1.5-4.2,3.5-5.4,7.8-5.4c84.8,0.1,169.6,0.1,254.3,0c4.8,0,6.6,1.4,7.5,6
			c7.3,36.2,14.9,72.3,22.1,108.5c0.8,4.2,2.3,5.6,6.7,5.6c30.1-0.2,60.3-0.1,90.4-0.1c30,0,60-0.1,89.9,0.1
			C2557.5,815.1,2558.8,814.3,2557.8,809.3z M2300.4,531.5c-52.8,0-105.6,0-158.3,0c-6.2,0-6.2,0-4.1-5.8
			c35.4-96.6,72-192.8,106.1-289.9c0.3-0.9,0.7-1.8,1.1-2.7c0.4,0,0.7,0.1,1.1,0.1c2.9,13.6,5.8,27.2,8.6,40.9
			c17.2,83.3,34.5,166.7,51.6,250C2308.1,531.8,2309.9,531.5,2300.4,531.5z"/>
	</g>
</g>
</svg>
