<svg xmlns="http://www.w3.org/2000/svg" width="12.202" height="15" viewBox="0 0 12.202 15">
  <path id="inplay" d="M12.656-4.219A5.87,5.87,0,0,1,10.869.088,5.87,5.87,0,0,1,6.563,1.875,5.87,5.87,0,0,1,2.256.088,5.87,5.87,0,0,1,.469-4.219a5.892,5.892,0,0,1,1.479-3.97,5.969,5.969,0,0,1,3.677-2.065v-1H4.8a.311.311,0,0,1-.352-.352v-1.172a.311.311,0,0,1,.352-.352H8.32a.311.311,0,0,1,.352.352V-11.6a.311.311,0,0,1-.352.352H7.5v1a6.07,6.07,0,0,1,2.93,1.318l.791-.791a.3.3,0,0,1,.5,0l.82.82a.3.3,0,0,1,0,.5l-.85.85-.029.029A5.84,5.84,0,0,1,12.656-4.219ZM7.5-3.164V-7.617a.358.358,0,0,0-.1-.234.319.319,0,0,0-.249-.117H5.977a.319.319,0,0,0-.249.117.358.358,0,0,0-.1.234v4.453a.311.311,0,0,0,.352.352H7.148A.311.311,0,0,0,7.5-3.164Z" transform="translate(-0.469 13.125)" fill="#8d8d8d"/>
</svg>
