<svg xmlns="http://www.w3.org/2000/svg" width="32" height="23.875" viewBox="0 0 32 23.875">
  <path id="check" d="M10.875-.562.438-10.937A1.523,1.523,0,0,1,0-12.062a1.523,1.523,0,0,1,.438-1.125l2.313-2.25a1.393,1.393,0,0,1,1.094-.5,1.588,1.588,0,0,1,1.156.5l7,7,15-15a1.588,1.588,0,0,1,1.156-.5,1.393,1.393,0,0,1,1.094.5l2.313,2.25A1.523,1.523,0,0,1,32-20.062a1.523,1.523,0,0,1-.437,1.125L13.125-.562A1.427,1.427,0,0,1,12-.062,1.427,1.427,0,0,1,10.875-.562Z" transform="translate(0 23.938)" fill="#12db79"/>
</svg>
