<svg id="live" xmlns="http://www.w3.org/2000/svg" xml:space="preserve" width="400px" height="400px" version="1.1" style="shape-rendering:geometricPrecision; text-rendering:geometricPrecision; image-rendering:optimizeQuality; fill-rule:evenodd; clip-rule:evenodd"
viewBox="0 0 1080 1080"
 xmlns:xlink="http://www.w3.org/1999/xlink">
 <defs>
  <style type="text/css">
   <![CDATA[
    #live .fil0 {fill:white}
	 #live *{
		-webkit-animation-timing-function: linear;
		animation-timing-function: linear;
		animation-fill-mode:forwards;
		animation-iteration-count: 1;
	}
	#live #lvhd{
		animation-name:lvhd;
		animation-duration:0.5s;
		transform-origin:1px 1px;
	}
	@keyframes lvhd{
			0%{transform:translate(0,100px);fill-opacity:0}
			40%{transform:translate(0,-20px);}
			70%{transform:translate(0,10px);}
			90%{transform:translate(0,-5px);fill-opacity:1}
			100%{transform:translate(0,0px);}
		}

	#lvtotop{
		animation-name:lvtotop;
		animation-duration:0.5s;
		animation-delay:0.4s;
	}
		@keyframes lvtotop{
			0%{transform:translate(0,0)}
			100%{transform:translate(0,250px)}
		}
	#lvtobot{
		animation-name:lvtobot;
		animation-duration:0.5s;
		animation-delay:0.6s;
	}
		@keyframes lvtobot{
			0%{transform:translate(0,0)}
			100%{transform:translate(0,-250px)}
		}
		
   ]]>
  </style>
   <clipPath id="lvttclp">
    <path d="M517 614l16 50 -18 59 4 9 44 0 5 -9 -18 -59 16 -49 -49 -1zm-64 18c-51,14 -82,57 -82,92 0,5 3,8 8,8l96 0 -34 -45c-2,-2 -2,-5 -2,-7 0,-2 1,-4 3,-6l20 -13 -9 -29zm175 0l-7 28 19 14c2,2 3,4 4,6 0,2 -1,5 -2,7l-33 45 94 0c5,0 9,-3 9,-8 0,-46 -42,-83 -84,-92z"/>
   </clipPath>
   <clipPath id="lvtbclp">
    <path d="M516 723c-9,-25 -31,-88 -31,-118 -1,1 -9,5 -18,15l12 42c1,3 0,7 -3,9l-16 12 37 49 23 0 -4 -9zm46 9l26 0 35 -49 -17 -12c-2,-2 -4,-5 -3,-9l10 -43c-4,-4 -10,-9 -15,-13 -1,31 -22,92 -31,117l-5 9z"/>
   </clipPath>
 </defs>
 <g id="live">
  
  <g style="clip-path:url(#lvttclp)">
   <g>
    <rect  id="lvtotop" class="fil0" x="349" y="350" width="383" height="250"/>
   </g>
  </g>
  
  
  <g style="clip-path:url(#lvtbclp)">
   <g>
    <rect id="lvtobot" class="fil0" x="440" y="733" width="201" height="250"/>
   </g>
  </g>
  
  <g id="lvhd" >
  <path class="fil0" d="M559 374c-84,0 -114,65 -90,119 -3,2 -8,8 -7,19 2,20 10,25 15,25 2,19 14,40 20,44 0,13 0,16 0,27 1,13 9,20 20,25 6,3 42,3 48,0 9,-4 20,-13 20,-26 -1,-15 -1,-13 -1,-25 6,-4 18,-26 21,-44 5,0 13,-5 15,-25 1,-11 -3,-18 -7,-19 16,-21 13,-102 -45,-102l-9 -18z"/>
 </g>
 </g>
</svg>
