<svg id="trophy" xmlns="http://www.w3.org/2000/svg" xml:space="preserve" width="1080px" height="1080px" version="1.1" style="shape-rendering:geometricPrecision; text-rendering:geometricPrecision; image-rendering:optimizeQuality; fill-rule:evenodd; clip-rule:evenodd"
viewBox="0 0 1080 1080"
 xmlns:xlink="http://www.w3.org/1999/xlink">
 <defs>
  <style type="text/css">
   <![CDATA[
    #trophy .fil0 {fill:#FFB300}


	
   ]]>
  </style>
 </defs>
 <g id="trophy">
  <path id="trph1" class="fil0" d="M497 634c-30,0 -55,24 -55,55l0 8c0,8 6,13 13,13l170 0c7,0 13,-5 13,-13l0 -8c0,-31 -25,-55 -55,-55 -29,0 -57,0 -86,0z"/>
  <polygon id="trph2" class="fil0"  points="527,591 527,637 553,637 553,591"/>
   <path id="trph3" class="fil0" d="M480 370c-19,0 -35,15 -37,34l-22 0c-16,0 -30,13 -30,30l0 51c0,30 25,55 56,55 29,90 157,90 186,0 31,0 56,-25 56,-55l0 -51c0,-17 -14,-30 -30,-30l-22 0c-2,-19 -18,-34 -37,-34l-120 0zm-59 59l21 0c0,28 -1,58 0,85 -14,-2 -25,-14 -25,-29l0 -51c0,-3 1,-5 4,-5zm217 0l21 0c3,0 4,2 4,5l0 51c0,15 -11,27 -25,29 1,-28 0,-57 0,-85z"/>
 </g>
</svg>
