<svg id="bord1" xmlns="http://www.w3.org/2000/svg" xml:space="preserve" width="1080px" height="1080px" version="1.1" style="shape-rendering:geometricPrecision; text-rendering:geometricPrecision; image-rendering:optimizeQuality; fill-rule:evenodd; clip-rule:evenodd"
viewBox="0 0 1080 1080"
 xmlns:xlink="http://www.w3.org/1999/xlink">
 <defs>
  <style type="text/css">
   <![CDATA[
    #bord1 .fil2 {fill:none}
    #bord1 .fil1 {fill:#3F3F3F}
    	
	

		
   ]]>
  </style>
   <clipPath id="b1clp">
    <path d="M0 0l1080 0 0 1080 -1080 0 0 -1080zm540 425c64,0 115,51 115,115 0,64 -51,115 -115,115 -64,0 -115,-51 -115,-115 0,-64 51,-115 115,-115z"/>
   </clipPath>
 </defs>
 		<g style="clip-path:url(#b1clp)">
				<g id="b1b_rtt">
					<path id="b1b_scl" class="fil1" d="M540 347c107,0 193,86 193,193 0,107 -86,193 -193,193 -107,0 -193,-86 -193,-193 0,-107 86,-193 193,-193zm101 193c0,56 -45,101 -101,101 -56,0 -101,-45 -101,-101 0,-56 45,-101 101,-101 56,0 101,45 101,101zm-109 -174l0 25c-14,1 -28,3 -41,8l-10 -23c15,-6 36,-10 51,-10zm17 0c17,0 35,4 50,9l-9 24c-13,-5 -27,-7 -41,-8l0 -25zm-83 16l9 23c-12,6 -24,14 -34,24l-18 -18c13,-12 27,-22 43,-29zm149 0c16,7 30,17 43,29l-18 18c-10,-10 -22,-18 -35,-24l10 -23zm-204 40l18 18c-9,11 -17,22 -23,35l-23 -9c7,-16 17,-31 28,-44zm259 0c11,13 21,28 28,44l-23 9c-6,-13 -14,-24 -23,-35l18 -18zm-294 59l23 10c-4,13 -7,26 -8,41l-25 0c1,-18 4,-35 10,-51zm329 0c5,16 9,33 10,51l-25 0c-1,-15 -4,-28 -8,-41l23 -10zm-339 67l25 0c1,15 4,28 8,41l-23 10c-6,-16 -9,-33 -10,-51zm324 0l25 0c-1,18 -5,35 -10,51l-23 -10c4,-13 7,-26 8,-41zm-284 57c6,13 14,24 23,35l-18 17c-11,-12 -21,-27 -28,-43l23 -9zm269 0l23 9c-7,16 -17,31 -28,43l-18 -17c9,-11 17,-22 23,-35zm-234 46c10,10 22,17 34,24l-9 23c-16,-7 -30,-17 -43,-29l18 -18zm199 0l18 18c-13,12 -27,22 -43,29l-10 -23c13,-7 25,-14 35,-24zm-149 30c13,5 27,7 41,8l0 25c-18,0 -35,-4 -51,-9l10 -24zm99 0l9 24c-15,5 -33,9 -50,9l0 -25c14,-1 28,-3 41,-8z"/>
				</g>
		</g> 
		<g id="b1f_rtt">
		  <path id="b1f_scl" class="fil1" d="M540 415c69,0 125,56 125,125 0,69 -56,125 -125,125 -69,0 -125,-56 -125,-125 0,-69 56,-125 125,-125zm-54 53c12,0 21,11 18,22l25 26c8,-4 15,-4 23,0l25 -26c-3,-11 6,-22 18,-22 10,0 18,8 18,18 0,12 -11,20 -23,17l-25 25c4,8 4,16 0,24l25 25c12,-3 23,5 23,17 0,10 -8,18 -18,18 -12,0 -21,-11 -18,-22l-25 -26c-8,4 -15,4 -23,0l-25 26c3,11 -6,22 -18,22 -10,0 -18,-8 -18,-18 0,-12 11,-20 23,-17l25 -25c-4,-8 -4,-16 0,-24l-25 -25c-12,3 -23,-5 -23,-17 0,-10 8,-18 18,-18z"/>
		</g>

</svg>
