<svg width="892" height="892" viewBox="0 0 892 892" fill="none" xmlns="http://www.w3.org/2000/svg">
<path opacity="0.25" d="M89.9998 0H802C825.87 0 848.761 9.48209 865.64 26.3603C882.518 43.2385 892 66.1303 892 89.9998V802C892 825.87 882.518 848.761 865.64 865.64C848.761 882.518 825.87 892 802 892H89.9998C66.1303 892 43.2385 882.518 26.3603 865.64C9.48209 848.761 0 825.87 0 802V89.9998C0 66.1303 9.48209 43.2385 26.3603 26.3603C43.2385 9.48209 66.1303 0 89.9998 0V0Z" fill="#57DEFF"/>
<path d="M349.759 139.614L346.26 695.338L579.66 261.841L349.759 139.614Z" fill="#57DEFF"/>
<path opacity="0.67" d="M349.05 437.882L701.522 701.864L344.565 695.574L349.05 437.882Z" fill="#57DEFF"/>
</svg>
