<svg width="892" height="892" viewBox="0 0 892 892" fill="none" xmlns="http://www.w3.org/2000/svg">
<path opacity="0.25" d="M90.001 0H801.999C825.869 0 848.761 9.48222 865.639 26.3607C882.518 43.2391 892 66.1312 892 90.001V801.999C892 825.869 882.518 848.761 865.639 865.639C848.761 882.518 825.869 892 801.999 892H90.001C66.1312 892 43.2391 882.518 26.3607 865.639C9.48222 848.761 0 825.869 0 801.999V90.001C0 66.1312 9.48222 43.2391 26.3607 26.3607C43.2391 9.48222 66.1312 0 90.001 0V0Z" fill="#FF207C"/>
<path d="M171.709 184.085L445.996 707.915L448.734 184.085H171.709Z" fill="#FF207C"/>
<path opacity="0.67" d="M720.283 184.085L445.996 707.915L446.076 184.085H720.291H720.283Z" fill="#FF207C"/>
</svg>
