<svg xmlns="http://www.w3.org/2000/svg" width="892" height="892" viewBox="0 0 892 892">
  <g id="Starcraft" transform="translate(3500 -13224)">
    <rect id="Rectangle_1122" data-name="Rectangle 1122" width="892" height="892" rx="90" transform="translate(-3500 13224)" fill="#ff9a36" opacity="0.25"/>
    <g id="Group_3238" data-name="Group 3238" transform="translate(-3299 13409.896)">
      <path id="Path_11280" data-name="Path 11280" d="M263.218,94.824l93.806,130.285s-1.3,20.848,0,23.45-2.608,19.546-2.608,19.546L341.386,279.18s-11.074,7.165-13.023,8.466-9.125,3.256-9.125,3.256H134.882l65.145-80.123,10.421,5.211s5.864,9.12,8.472,9.773,40.388,1.3,40.388,1.3L160.292,94.824Z" transform="translate(-134.882 113.641)" fill="#ff9a36"/>
      <path id="Path_11281" data-name="Path 11281" d="M168.429,81.254,148.889,92.328s-11.047,28.949-8.926,51.463H288.947l9.12,14.33a17.613,17.613,0,0,1,6.517,0c3.9.653,65.14-76.867,65.14-76.867Z" transform="translate(-113.057 52.071)" fill="#ff9a36"/>
      <path id="Path_11282" data-name="Path 11282" d="M185.668,141.054s29.967-60.583,45.6-60.583,178.5,2.6,178.5,2.6l-63.19,80.777-16.938-14.978H182.412Z" transform="translate(80.771 48.518)" fill="#ff9a36"/>
      <path id="Path_11283" data-name="Path 11283" d="M186.571,94.824h82.083S252.369,247.911,320.77,247.258h69.049s-39.735,43-76.22,43.644H262.79S197,270.708,180.059,199.051Z" transform="translate(70.095 113.641)" fill="#ff9a36"/>
      <path id="Path_11284" data-name="Path 11284" d="M181.235,126.118s40.388,63.185,123.773,48.207c0,0-10.421,50.156-123.773,101.619Z" transform="translate(75.431 255.628)" fill="#ff9a36"/>
      <path id="Path_11285" data-name="Path 11285" d="M275.676,129.176v130.29s-95.112-50.815-115.955-84.686L154.965,161.1l89.442-.648S260.692,161.1,275.676,129.176Z" transform="translate(-43.761 269.502)" fill="#ff9a36"/>
      <path id="Path_11286" data-name="Path 11286" d="M317.686,162.062,321.6,93.007,251.887,57.176S155.479,74.114,145.706,85.189v18.24s59.929,28.666,55.372,63.191H317.686Z" transform="translate(-85.771 -57.176)" fill="#ff9a36"/>
      <path id="Path_11287" data-name="Path 11287" d="M181.235,166.619H305.008s-1.3-44.946,50.161-60.583L357.778,90.4,269.5,57.176H251.591L181.235,94.308Z" transform="translate(75.431 -57.176)" fill="#ff9a36"/>
    </g>
  </g>
</svg>
