<svg width="17" height="17" viewBox="0 0 17 17" fill="none" xmlns="http://www.w3.org/2000/svg">
<path d="M14.0781 7.94207L8.175 2.81863C8.12969 2.77957 8.07188 2.75769 8.01094 2.75769H6.62813C6.5125 2.75769 6.45938 2.90144 6.54688 2.97644L12.0188 7.72644H2.875C2.80625 7.72644 2.75 7.78269 2.75 7.85144V8.78894C2.75 8.85769 2.80625 8.91394 2.875 8.91394H12.0172L6.54531 13.6639C6.45781 13.7405 6.51094 13.8827 6.62656 13.8827H8.05625C8.08594 13.8827 8.11562 13.8718 8.1375 13.8514L14.0781 8.69832C14.1322 8.65128 14.1756 8.59318 14.2053 8.52795C14.235 8.46272 14.2504 8.39187 14.2504 8.32019C14.2504 8.24851 14.235 8.17766 14.2053 8.11243C14.1756 8.0472 14.1322 7.9891 14.0781 7.94207V7.94207Z" fill="#FF0C00"/>
</svg>
