<svg width="16" height="16" viewBox="0 0 16 16" fill="none" xmlns="http://www.w3.org/2000/svg">
<path d="M13.6244 7.40625H4.48222L9.95409 2.65625C10.0416 2.57969 9.98847 2.4375 9.87284 2.4375H8.49003C8.42909 2.4375 8.37128 2.45937 8.32597 2.49844L2.42128 7.62187C2.3672 7.66875 2.32383 7.72671 2.2941 7.79181C2.26438 7.85692 2.24899 7.92765 2.24899 7.99922C2.24899 8.07079 2.26438 8.14152 2.2941 8.20663C2.32383 8.27173 2.3672 8.32968 2.42128 8.37656L8.36034 13.5312C8.38378 13.5516 8.4119 13.5625 8.44159 13.5625H9.87128C9.9869 13.5625 10.04 13.4188 9.95253 13.3438L4.48222 8.59375H13.6244C13.6932 8.59375 13.7494 8.5375 13.7494 8.46875V7.53125C13.7494 7.4625 13.6932 7.40625 13.6244 7.40625Z" fill="#12DB79"/>
</svg>
