<svg id="Group_3794" data-name="Group 3794" xmlns="http://www.w3.org/2000/svg" width="156.305" height="156.305" viewBox="0 0 156.305 156.305">
  <g id="noteamlogo" transform="translate(0 0)">
    <path id="Path_11298" data-name="Path 11298" d="M15.771,0H140.533A15.771,15.771,0,0,1,156.3,15.771V140.534A15.771,15.771,0,0,1,140.533,156.3H15.771A15.771,15.771,0,0,1,0,140.534V15.771A15.771,15.771,0,0,1,15.771,0Z" transform="translate(0 0)" fill="#262629"/>
    <path id="Path_11771" data-name="Path 11771" d="M25.275,36.059a2.055,2.055,0,0,0,2.049-2.049V27.178a2.055,2.055,0,0,0-2.049-2.049H18.444a2.055,2.055,0,0,0-2.049,2.049v6.831a2.055,2.055,0,0,0,2.049,2.049Zm18.444-2.049V27.178a2.055,2.055,0,0,0-2.049-2.049H34.838a2.055,2.055,0,0,0-2.049,2.049v6.831a2.055,2.055,0,0,0,2.049,2.049H41.67A2.055,2.055,0,0,0,43.719,34.009Zm16.395,0V27.178a2.055,2.055,0,0,0-2.049-2.049H51.233a2.055,2.055,0,0,0-2.049,2.049v6.831a2.055,2.055,0,0,0,2.049,2.049h6.831A2.055,2.055,0,0,0,60.113,34.009ZM43.719,50.4V43.573a2.055,2.055,0,0,0-2.049-2.049H34.838a2.055,2.055,0,0,0-2.049,2.049V50.4a2.055,2.055,0,0,0,2.049,2.049H41.67A2.055,2.055,0,0,0,43.719,50.4Zm-16.395,0V43.573a2.055,2.055,0,0,0-2.049-2.049H18.444a2.055,2.055,0,0,0-2.049,2.049V50.4a2.055,2.055,0,0,0,2.049,2.049h6.831A2.055,2.055,0,0,0,27.324,50.4Zm32.789,0V43.573a2.055,2.055,0,0,0-2.049-2.049H51.233a2.055,2.055,0,0,0-2.049,2.049V50.4a2.055,2.055,0,0,0,2.049,2.049h6.831A2.055,2.055,0,0,0,60.113,50.4ZM76.508,6a8.2,8.2,0,0,0-8.2-8.2h-8.2v-8.88a2.055,2.055,0,0,0-2.049-2.049H51.233a2.055,2.055,0,0,0-2.049,2.049V-2.2H27.324v-8.88a2.055,2.055,0,0,0-2.049-2.049H18.444a2.055,2.055,0,0,0-2.049,2.049V-2.2H8.2A8.2,8.2,0,0,0,0,6V66.115a8.2,8.2,0,0,0,8.2,8.2H68.311a8.2,8.2,0,0,0,8.2-8.2Zm-8.2,59.089a1.028,1.028,0,0,1-1.025,1.025H9.222A1.028,1.028,0,0,1,8.2,65.091V14.2H68.311Z" transform="translate(40.81 41.542)" fill="#6e6f6f"/>
  </g>
</svg>
