<svg xmlns="http://www.w3.org/2000/svg" width="22" height="22" viewBox="0 0 22 22">
  <path id="x" d="M15.188-12l6.25-6.25A1.87,1.87,0,0,0,22-19.625a2.086,2.086,0,0,0-.562-1.437l-1.375-1.375A2.086,2.086,0,0,0,18.625-23a1.87,1.87,0,0,0-1.375.563L11-16.187l-6.25-6.25A1.87,1.87,0,0,0,3.375-23a2.086,2.086,0,0,0-1.437.563L.563-21.062A2.086,2.086,0,0,0,0-19.625,1.87,1.87,0,0,0,.563-18.25L6.813-12,.563-5.75A1.87,1.87,0,0,0,0-4.375,2.086,2.086,0,0,0,.563-2.937L1.938-1.562A2.086,2.086,0,0,0,3.375-1,1.87,1.87,0,0,0,4.75-1.562L11-7.812l6.25,6.25A1.87,1.87,0,0,0,18.625-1a2.086,2.086,0,0,0,1.438-.562l1.375-1.375A2.086,2.086,0,0,0,22-4.375a1.87,1.87,0,0,0-.562-1.375Z" transform="translate(0 23)" fill="#d2392c"/>
</svg>
