<svg xmlns="http://www.w3.org/2000/svg" width="26.474" height="21.502" viewBox="0 0 26.474 21.502">
  <path id="twitter" d="M23.753-6.358a11.663,11.663,0,0,0,2.721-2.805,10.878,10.878,0,0,1-3.124.84,5.411,5.411,0,0,0,2.385-2.99A10.682,10.682,0,0,1,22.292-10a5.413,5.413,0,0,0-3.964-1.713A5.423,5.423,0,0,0,12.9-6.29a6.125,6.125,0,0,0,.134,1.243A15.423,15.423,0,0,1,1.848-10.725a5.385,5.385,0,0,0-.739,2.738A5.422,5.422,0,0,0,3.528-3.468a5.464,5.464,0,0,1-2.453-.689v.067A5.427,5.427,0,0,0,5.426,1.235,5.737,5.737,0,0,1,4,1.42a6.839,6.839,0,0,1-1.025-.084A5.436,5.436,0,0,0,8.046,5.1,10.867,10.867,0,0,1,1.31,7.417,11.229,11.229,0,0,1,0,7.35,15.333,15.333,0,0,0,8.332,9.786,15.332,15.332,0,0,0,23.77-5.652C23.77-5.887,23.77-6.123,23.753-6.358Z" transform="translate(0 11.716)" fill="#fff"/>
</svg>
