<svg xmlns="http://www.w3.org/2000/svg" width="31.766" height="53.5" viewBox="0 0 31.766 53.5">
  <path id="Path_11252" data-name="Path 11252" d="M25.412,24.537,16.474,15.66.669-.039A2,2,0,0,1,0-1.46,2.328,2.328,0,0,1,.5-2.881L3.845-6.225a2.445,2.445,0,0,1,1.5-.5,1.808,1.808,0,0,1,1.338.5L26.75,13.67l20.062-19.9a1.808,1.808,0,0,1,1.338-.5,2.445,2.445,0,0,1,1.5.5L53-2.881a2.328,2.328,0,0,1,.5,1.421A2.328,2.328,0,0,1,53-.039L28.255,24.537a2.508,2.508,0,0,1-3.009,0Z" transform="translate(6.727 53.5) rotate(-90)" fill="#6e6f6f"/>
</svg>
