<svg xmlns="http://www.w3.org/2000/svg" width="33.906" height="33.906" viewBox="0 0 33.906 33.906">
    <path fill="#00b75b" d="M23.037-19.687a23.467 23.467 0 0 0-2.461-7.52q-1.641-2.871-3.623-2.871t-3.623 2.871a22.46 22.46 0 0 0-2.393 7.52zm-12.646 6.562q0 2.188.205 4.375h12.715q.205-2.187.205-4.375t-.205-4.375H10.6q-.209 2.188-.209 4.375zm22.217-6.562a17.3 17.3 0 0 0-4.341-6.05 16.744 16.744 0 0 0-6.46-3.657q2.393 3.418 3.418 9.707zM12.1-29.395a16.744 16.744 0 0 0-6.46 3.657 17.3 17.3 0 0 0-4.34 6.051h7.382q.957-6.29 3.418-9.708zM33.291-17.5H25.5q.205 2.256.205 4.375T25.5-8.75h7.793a16.094 16.094 0 0 0 .615-4.375 16.094 16.094 0 0 0-.617-4.375zM8.2-13.125q0-2.119.205-4.375H.615A16.6 16.6 0 0 0 0-13.125 16.6 16.6 0 0 0 .615-8.75h7.793Q8.2-11.074 8.2-13.125zm2.734 6.563A22.46 22.46 0 0 0 13.33.957q1.641 2.871 3.623 2.871T20.576.957a22.46 22.46 0 0 0 2.393-7.52zm10.873 9.707a16.744 16.744 0 0 0 6.46-3.657 17.3 17.3 0 0 0 4.341-6.05h-7.383q-.957 6.289-3.418 9.707zM1.3-6.562A17.3 17.3 0 0 0 5.64-.513a16.744 16.744 0 0 0 6.46 3.658Q9.707-.273 8.682-6.562z" transform="translate(0 30.078)"/>
</svg>
