<svg xmlns="http://www.w3.org/2000/svg" width="18.769" height="13.125" viewBox="0 0 18.769 13.125">
  <path id="pad" d="M18.75-2.344a2.668,2.668,0,0,1-.674,2.285,2.9,2.9,0,0,1-2.285,1,3.4,3.4,0,0,1-1.963-.6,3.165,3.165,0,0,1-1.23-1.6l-.205-.615H6.445l-.234.615A3.165,3.165,0,0,1,4.98.337a3.4,3.4,0,0,1-1.963.6,2.9,2.9,0,0,1-2.285-1A2.668,2.668,0,0,1,.059-2.344l1-6.182a3.473,3.473,0,0,1,.981-1.934,3.9,3.9,0,0,1,1.948-1.084,22.988,22.988,0,0,1,10.811,0h.029a3.9,3.9,0,0,1,1.948,1.084,3.473,3.473,0,0,1,.981,1.934ZM8.232-6.211v-.7a.311.311,0,0,0-.352-.352H6.357V-8.789a.311.311,0,0,0-.352-.352H5.3a.311.311,0,0,0-.352.352v1.523H3.428a.311.311,0,0,0-.352.352v.7a.311.311,0,0,0,.352.352H4.951v1.523a.311.311,0,0,0,.352.352h.7a.311.311,0,0,0,.352-.352V-5.859H7.881A.311.311,0,0,0,8.232-6.211Zm3.618,1.89a1.134,1.134,0,0,0,.835.337,1.134,1.134,0,0,0,.835-.337,1.134,1.134,0,0,0,.337-.835,1.134,1.134,0,0,0-.337-.835,1.134,1.134,0,0,0-.835-.337,1.134,1.134,0,0,0-.835.337,1.134,1.134,0,0,0-.337.835A1.134,1.134,0,0,0,11.851-4.321Zm1.875-2.812a1.134,1.134,0,0,0,.835.337,1.134,1.134,0,0,0,.835-.337,1.134,1.134,0,0,0,.337-.835A1.134,1.134,0,0,0,15.4-8.8a1.134,1.134,0,0,0-.835-.337,1.134,1.134,0,0,0-.835.337,1.134,1.134,0,0,0-.337.835A1.134,1.134,0,0,0,13.726-7.134Z" transform="translate(-0.02 12.188)" fill="#8d8d8d"/>
</svg>
