<svg id="clock_gray" xmlns="http://www.w3.org/2000/svg" width="156.305" height="156.305" viewBox="0 0 156.305 156.305">
  <g id="noteamlogo" transform="translate(0 0)">
    <path id="Path_11298" data-name="Path 11298" d="M15.771,0H140.533A15.771,15.771,0,0,1,156.3,15.771V140.534A15.771,15.771,0,0,1,140.533,156.3H15.771A15.771,15.771,0,0,1,0,140.534V15.771A15.771,15.771,0,0,1,15.771,0Z" transform="translate(0 0)" fill="#262629"/>
  </g>
  <path id="Path_11770" data-name="Path 11770" d="M42.587-12.891A42.353,42.353,0,1,0,84.94,29.462,42.345,42.345,0,0,0,42.587-12.891Zm0,76.508A34.155,34.155,0,1,1,76.742,29.462,34.146,34.146,0,0,1,42.587,63.617ZM53.141,45.788a2.063,2.063,0,0,0,2.869-.444l3.211-4.423a2.048,2.048,0,0,0-.444-2.869l-11.408-8.3V5.553A2.055,2.055,0,0,0,45.319,3.5H39.855a2.055,2.055,0,0,0-2.049,2.049V33.595a2.063,2.063,0,0,0,.837,1.657Z" transform="translate(34.741 47.866)" fill="#6e6f6f"/>
</svg>
