<svg xmlns="http://www.w3.org/2000/svg" width="351.336" height="401.527" viewBox="0 0 351.336 401.527">
  <path id="Path_11782" data-name="Path 11782" d="M175.668,192.013a99.534,99.534,0,0,0,50.583-13.332,97.656,97.656,0,0,0,36.467-36.467A99.535,99.535,0,0,0,276.05,91.632a99.534,99.534,0,0,0-13.332-50.583A97.656,97.656,0,0,0,226.251,4.582a102.625,102.625,0,0,0-101.166,0A97.657,97.657,0,0,0,88.618,41.049,99.534,99.534,0,0,0,75.286,91.632a99.535,99.535,0,0,0,13.332,50.583,97.657,97.657,0,0,0,36.467,36.467A99.534,99.534,0,0,0,175.668,192.013Zm70.581,25.1H232.917a136.873,136.873,0,0,1-114.5,0H105.087a102.857,102.857,0,0,0-52.544,14.116,104.221,104.221,0,0,0-38.427,38.427A102.857,102.857,0,0,0,0,322.2v32.938A36.3,36.3,0,0,0,10.979,381.8a36.3,36.3,0,0,0,26.664,10.979h276.05a37.487,37.487,0,0,0,37.643-37.643V322.2a102.857,102.857,0,0,0-14.116-52.544,104.22,104.22,0,0,0-38.427-38.427A102.857,102.857,0,0,0,246.249,217.109Z" transform="translate(0 8.75)" fill="#00b75b"/>
</svg>
