<svg xmlns="http://www.w3.org/2000/svg" width="27.201" height="32.369" viewBox="0 0 27.201 32.369">
    <path fill="#fff" d="M23.031-12.957a6.746 6.746 0 0 1 3.613-6.128 7.764 7.764 0 0 0-6.121-3.223c-2.565-.2-5.369 1.5-6.4 1.5-1.084 0-3.57-1.424-5.521-1.424C4.574-22.171.289-19.02.289-12.61A18.011 18.011 0 0 0 1.33-6.742c.925 2.652 4.263 9.156 7.747 9.047 1.821-.043 3.107-1.294 5.478-1.294 2.3 0 3.49 1.294 5.521 1.294 3.512-.051 6.533-5.962 7.414-8.621a7.164 7.164 0 0 1-4.459-6.641zm-4.09-11.866a6.806 6.806 0 0 0 1.734-5.239 7.663 7.663 0 0 0-4.907 2.522 6.913 6.913 0 0 0-1.85 5.2 6.069 6.069 0 0 0 5.023-2.483z" transform="translate(-0.289 30.063)"/>
</svg>
