<svg width="68" height="25" viewBox="0 0 68 25" fill="none" xmlns="http://www.w3.org/2000/svg">
<path fill-rule="evenodd" clip-rule="evenodd" d="M19.5449 4.21104C18.1854 4.27878 15.6019 5.40064 13.8345 8.73179L9.34748 17.8077C8.42992 19.6088 6.83208 22.4306 4.45289 21.9883C2.10775 21.4109 1.90345 18.3174 3.12746 15.2923C4.3511 12.2669 9.89191 3.29313 17.1657 1.79744C20.7008 1.25336 23.2839 1.38956 24.2359 3.90495C25.1875 6.42034 22.842 8.93573 19.7151 10.0913C18.9675 10.3633 16.7578 11.3149 16.418 11.8927C16.1352 12.373 16.0782 12.8106 16.5198 13.2185C16.5631 13.2584 16.6144 13.3042 16.6719 13.3555C17.3206 13.9345 18.7585 15.2177 18.3212 16.6851C17.8453 18.2833 16.146 20.2546 14.3105 20.0844C14.6843 19.7106 14.6213 18.5693 14.1406 18.2489C13.7327 17.9772 12.8489 17.9088 12.475 18.7249C12.1012 19.5403 12.3729 20.6285 13.7327 21.1044C15.0926 21.5804 18.2535 21.1722 20.123 18.317C20.7689 17.2977 21.2789 14.6124 17.8797 12.8447C17.4037 12.6067 17.4377 11.9604 18.2875 11.8246L18.3833 11.8095C19.4511 11.6423 24.0548 10.9212 25.7319 8.32355C26.6835 6.99776 27.2954 4.82215 26.3437 3.05478C25.3918 1.28705 21.9588 0.335448 18.8657 0.67523C15.7725 1.01537 8.80447 1.86483 2.68552 10.6346C-1.25781 16.278 0.509915 21.4442 2.61742 22.532C4.72493 23.6198 8.93995 23.7557 11.931 17.5016L15.6019 9.47945C16.4177 7.57589 18.0496 5.29849 19.5789 4.68667C19.9531 4.61857 20.123 4.21104 19.5449 4.21104ZM46.126 6.69239C47.0439 7.10027 45.5486 9.88771 44.8687 11.0092C43.4407 13.5927 41.7752 15.1224 40.8576 15.9041C40.7562 13.5583 44.6307 6.18236 46.126 6.69239ZM46.8063 4.92538L46.126 6.69239L46.8063 4.92466C45.3146 4.74545 42.6927 7.40601 40.8239 10.5332C38.954 13.6604 38.4103 16.1414 38.3766 18.2837C37.0845 19.4729 34.3311 20.4586 34.0595 17.4676C35.8609 15.6321 38.92 11.8594 40.6877 8.97015C42.4554 6.08057 43.5096 2.74977 42.0135 1.86591C40.5182 0.982406 36.7451 4.65298 34.7738 8.01855C32.8021 11.3837 32.02 14.273 31.748 18.3177C31.2043 19.0654 29.3688 19.8475 28.8251 19.4055C28.4853 19.0995 28.3151 18.5901 28.8251 17.6038L30.7623 13.797C29.8788 13.4909 28.9269 13.5934 28.4172 13.797L26.3437 17.2987C25.7319 18.3858 24.576 19.9156 23.5904 19.5417C22.585 19.1603 23.1114 17.6394 23.4544 16.6483L23.4882 16.5504C23.828 15.5647 25.1197 12.8457 27.6011 11.7239C28.0771 11.4859 28.519 11.7916 28.7907 12.2336C29.0287 12.6755 30.0824 12.8794 30.5921 12.3357C31.1021 11.7916 31.0068 11.0357 30.4222 10.568C29.7426 10.0239 28.009 10.33 27.3631 10.568C26.8681 10.7504 21.9244 13.083 20.9728 17.7403C20.633 19.7794 21.4829 21.1389 22.9441 21.2414C23.862 21.2758 25.2896 20.2901 25.9692 19.5762C26.105 20.2557 26.785 21.5138 28.1789 21.5138C29.0287 21.5138 29.9803 21.3435 31.8838 19.712C32.2236 20.4941 33.0057 21.4453 34.6713 21.4116C35.6913 21.4116 37.3566 20.3238 38.5462 19.3038C38.8522 20.2901 40.1443 21.0034 40.9934 20.9697C41.8433 20.9353 42.9992 20.3579 44.563 19.0658C44.7325 19.9156 45.3784 20.5618 46.126 20.5618C46.8744 20.5618 48.098 20.3238 49.3217 19.2023L46.6364 24.3349H48.778L55.508 10.6024H53.469C53.3896 10.7535 53.2817 10.9676 53.1498 11.2293L53.1496 11.2297C52.095 13.322 49.51 18.4505 47.7579 18.6919C47.0439 18.7941 46.4662 18.3181 47.0102 17.2303L50.5453 10.6024H48.336L45.2425 16.1088C45.1974 16.1817 45.1452 16.27 45.0862 16.3696L45.0861 16.3697C44.5676 17.2454 43.5259 19.0049 42.1834 19.0658C41.4357 19.0658 40.9934 18.4202 40.8239 17.536C42.863 15.8708 45.8199 12.3698 47.1124 9.54828C47.6558 8.42643 48.5056 5.12932 46.8063 4.92538ZM41.0956 3.25981C41.8784 3.89958 40.3479 6.863 39.4304 8.49453C38.0365 10.7719 35.6573 14.1708 34.2978 15.531C34.7053 11.8938 36.6092 8.15439 37.3225 6.99884C38.0365 5.84294 40.3479 2.64798 41.0956 3.25981ZM56.5281 9.30957L56.8675 9.47946C58.0911 8.90169 59.4169 7.40601 59.485 5.97842C59.5872 5.12861 58.1593 4.92467 57.7517 5.40065C57.4116 5.67269 57.2076 6.45404 57.6496 6.82823C57.9553 7.06587 57.8876 7.91604 56.5281 9.30957ZM51.5647 19.9489C52.0751 19.1668 53.1285 17.3658 53.7062 16.3117C54.2844 15.2583 57.0722 10.6354 60.675 10.3293C61.3883 10.2615 61.4904 10.6694 61.1847 11.1791C60.8786 11.6891 61.0488 12.5049 61.4908 12.8106L61.5535 12.8537C62.1189 13.2408 64.2803 14.7204 64.3463 16.4816C64.414 18.317 62.7144 20.8665 58.6019 21.207C56.6643 21.3084 55.6786 19.9149 55.6786 19.0991C55.6786 18.2833 56.3919 17.7733 57.0725 17.7396C57.7521 17.7052 58.6356 18.793 57.8202 19.9145C58.194 20.1869 59.0775 20.2206 60.4377 19.1324C61.7972 18.0453 62.885 15.9038 61.7295 14.6457C61.6867 14.6029 61.6414 14.5585 61.5942 14.5122C61.0422 13.9704 60.2415 13.1847 60.3356 11.9945C60.4377 11.4845 60.0976 11.4845 59.7238 11.6884L59.6904 11.7065C59.2913 11.9219 58.273 12.4715 56.3245 16.0049C55.9851 16.6511 54.5912 19.1661 54.0815 19.9482C53.5704 20.731 52.0407 20.7647 51.5647 19.9489ZM66.0441 17.8887C66.6491 17.8887 67.1266 18.3661 67.1266 18.9991C67.1266 19.6425 66.6491 20.1163 66.0441 20.1163C65.433 20.1163 64.9556 19.6425 64.9556 18.9991C64.9556 18.3661 65.433 17.8887 66.0441 17.8887ZM66.0441 17.6661C65.309 17.6661 64.6868 18.2317 64.6868 18.9991C64.6868 19.7733 65.309 20.3389 66.0441 20.3389C66.7728 20.3389 67.3954 19.7733 67.3954 18.9991C67.3954 18.2317 66.7731 17.6661 66.0441 17.6661ZM66.08 18.4299H65.762H65.7617V19.7729H65.528V18.2314H66.1154C66.4796 18.2314 66.6595 18.3658 66.6595 18.6704C66.6595 18.9457 66.4868 19.0661 66.2606 19.0948L66.699 19.7733H66.4373L66.0305 19.1056H65.7624V18.9073H66.0409C66.2391 18.9073 66.4162 18.8934 66.4162 18.6561C66.4162 18.4658 66.2423 18.4299 66.08 18.4299Z" fill="white"/>
</svg>
