<svg xmlns="http://www.w3.org/2000/svg" xmlns:xlink="http://www.w3.org/1999/xlink" width="160.496" height="43" viewBox="0 0 160.496 43">
  <defs>
    <linearGradient id="linear-gradient" x1="7.367" y1="21.176" x2="8.24" y2="23.444" gradientUnits="objectBoundingBox">
      <stop offset="0" stop-color="#ffb600"/>
      <stop offset="1" stop-color="red"/>
    </linearGradient>
    <linearGradient id="linear-gradient-2" x1="0.5" y1="0" x2="0.5" y2="1" xlink:href="#linear-gradient"/>
    <linearGradient id="linear-gradient-3" x1="0.5" x2="0.5" y2="1" gradientUnits="objectBoundingBox">
      <stop offset="0" stop-color="#ff4c00"/>
      <stop offset="1" stop-color="#ffd500"/>
    </linearGradient>
    <linearGradient id="linear-gradient-4" x1="0.5" x2="0.5" y2="1" gradientUnits="objectBoundingBox">
      <stop offset="0" stop-color="#ffb600"/>
      <stop offset="1" stop-color="#ff4600"/>
    </linearGradient>
    <linearGradient id="linear-gradient-5" x1="-192.178" y1="38.024" x2="-190.214" y2="38.024" xlink:href="#linear-gradient"/>
  </defs>
  <g id="blue" transform="translate(-29.907 -22.039)">
    <g id="Group_3829" data-name="Group 3829" transform="translate(-1295.476 773.27)">
      <path id="Path_12732" data-name="Path 12732" d="M1336.747-742.2c5.664,0,9.291,3.281,9.291,8.946,0,5.63-3.558,8.807-9.223,8.807H1333.4v5.249c0,1.14-.38,1.52-1.52,1.52H1326.9c-1.14,0-1.52-.38-1.52-1.52v-21.482c0-1.14.38-1.52,1.52-1.52Zm-.968,10.845c2.625.208,2.625-4.144,0-3.937H1333.4v3.937Z" transform="translate(0 -0.034)" fill="#252b72"/>
      <path id="Path_12733" data-name="Path 12733" d="M1390.175-742.27c1.14,0,1.52.38,1.52,1.52v21.517c0,1.14-.38,1.52-1.52,1.52H1385.2c-1.139,0-1.52-.38-1.52-1.52v-7.46h-5.111v7.46c0,1.14-.38,1.52-1.52,1.52h-4.973c-1.14,0-1.52-.38-1.52-1.52V-740.75c0-1.14.38-1.52,1.52-1.52h4.973c1.14,0,1.52.38,1.52,1.52v7.149h5.111v-7.149c0-1.14.38-1.52,1.52-1.52Z" transform="translate(-22.587)" fill="#252b72"/>
      <g id="Group_3828" data-name="Group 3828" transform="translate(1408.057 -741.714)">
        <path id="Path_12734" data-name="Path 12734" d="M1507.308-741.158c1.14,0,1.52.38,1.52,1.519v3.868c0,1.14-.38,1.52-1.52,1.52h-8.566v1.8h6.632c1.139,0,1.52.379,1.52,1.519v3.868c0,1.14-.38,1.52-1.52,1.52h-6.632v1.969h8.807c1.14,0,1.52.38,1.52,1.52v3.9c0,1.14-.38,1.52-1.52,1.52h-15.3c-1.141,0-1.52-.38-1.52-1.52v-21.483c0-1.14.38-1.519,1.52-1.519Z" transform="translate(-1490.73 741.158)" fill="#252b72"/>
        <path id="Path_12735" data-name="Path 12735" d="M1551.584-741.158c1.14,0,1.52.38,1.52,1.519v21.483c0,1.14-.38,1.52-1.52,1.52h-4.939a1.661,1.661,0,0,1-1.486-.726l-3.9-6.216a21.014,21.014,0,0,1-1.555-2.9c-.311-.725-.863-2.349-1.623-4.8h-.276c.587,2.729.967,4.594,1.1,5.561a44.765,44.765,0,0,1,.173,4.49v3.073c0,1.14-.38,1.52-1.52,1.52h-4.421c-1.14,0-1.52-.38-1.52-1.52v-21.483c0-1.14.38-1.519,1.52-1.519h5.285a1.675,1.675,0,0,1,1.485.69l4.49,7.322a22.358,22.358,0,0,1,1.244,2.28c.1.242.31.794.69,1.692.38.933.691,1.762,1,2.487h.311c-.932-3.074-1.52-5.077-1.693-6.01a17.953,17.953,0,0,1-.31-3.8v-3.143c0-1.14.38-1.519,1.52-1.519Z" transform="translate(-1511.176 741.158)" fill="#252b72"/>
        <path id="Path_12736" data-name="Path 12736" d="M1580.111-739.776c0-1,.38-1.382,1.381-1.382h5.25c1,0,1.382.38,1.382,1.382v21.759c0,1-.38,1.382-1.382,1.382h-5.25c-1,0-1.381-.38-1.381-1.382Z" transform="translate(-1535.42 741.158)" fill="#252b72"/>
        <path id="Path_12737" data-name="Path 12737" d="M1622.341-718.156c.552.829.311,1.52-.76,1.52h-5.525c-1.9,0-2.314-.138-2.97-1.347l-2.418-4.524-2.452,4.524c-.587,1.106-1,1.347-2.97,1.347h-5.319c-1.071,0-1.312-.587-.76-1.52l6.976-10.983-6.631-10.6c-.518-.794-.242-1.416.725-1.416h5.077c1.934,0,2.417.173,2.97,1.243l2.382,4.318,2.315-4.318c.587-1.139,1-1.243,2.763-1.243h5.526c.967,0,1.209.622.691,1.416l-6.7,10.6Z" transform="translate(-1544.804 741.158)" fill="#252b72"/>
      </g>
    </g>
    <g id="Group_3832" data-name="Group 3832" transform="translate(-1333.677 789.916)">
      <path id="Path_12738" data-name="Path 12738" d="M1438.713-695.264c-.119.045-.24.134-.352.189-.147.072-.3.145-.442.23-.283.172-.564.3-.855.46q-.872.475-1.79.863a21.315,21.315,0,0,1-3.8,1.2,22.043,22.043,0,0,1-3.981.492,22.228,22.228,0,0,1-4.035-.237,21.822,21.822,0,0,1-3.1-.7,24.145,24.145,0,0,1-14.348-12.325,24.143,24.143,0,0,0,14.951,13.267,21.742,21.742,0,0,0,3.861.76,22.143,22.143,0,0,0,3.92.059,22.049,22.049,0,0,0,3.842-.627,21.338,21.338,0,0,0,3.646-1.293,20.193,20.193,0,0,0,3.331-1.938c.509-.366,1.041-.7,1.516-1.113a20.942,20.942,0,0,0,1.546-1.5l.147-.159" transform="translate(0 -33.934)" fill="url(#linear-gradient)"/>
      <g id="Group_3830" data-name="Group 3830" transform="translate(1425.752 -765.889)">
        <path id="Path_12739" data-name="Path 12739" d="M1454.453-743.765c-1.171,5.2-.982,12.856-5.483,16.359,4.891,2.414,14.188.955,18.3-11.4a20.8,20.8,0,0,1-3.163,10.169,20.864,20.864,0,0,0,1.558-28.618,20.807,20.807,0,0,0-9.269-6.293C1474.146-751.315,1459.265-733.751,1454.453-743.765Z" transform="translate(-1448.97 763.551)" fill-rule="evenodd" fill="url(#linear-gradient-2)"/>
      </g>
      <g id="Group_3831" data-name="Group 3831" transform="translate(1410.589 -753.489)">
        <path id="Path_12740" data-name="Path 12740" d="M1435.856-728.323c-2.843,4.953-4.275,10.4-10.757,10.629a7.053,7.053,0,0,0,2.143-3.316,12.116,12.116,0,0,1-3.3-.252c-2.367.945-5.736-.17-7.967-3.134,1.983,9.658,9.641,13.876,16.609,9.95a13.881,13.881,0,0,0,1.923-1.311,4.436,4.436,0,0,1,.455,3.567c5.071-3.344,4.115-11.285,4.868-16.673.647-4.691,2.871-7.732,6.147-6.418C1442.429-739.175,1438.8-733.465,1435.856-728.323Z" transform="translate(-1415.974 736.567)" fill-rule="evenodd" fill="url(#linear-gradient-3)"/>
        <path id="Path_12741" data-name="Path 12741" d="M1448.64-728.323c-2.331,4.065-3.717,8.457-7.715,10.031a7.146,7.146,0,0,1-1.3,2.477c6.428-.835,7.342-6.389,9.708-11.592,2.452-5.394,5.76-10.962,9.423-7.874C1455.213-739.175,1451.585-733.465,1448.64-728.323Z" transform="translate(-1428.758 736.567)" fill="#fff" fill-rule="evenodd"/>
      </g>
      <path id="Path_12742" data-name="Path 12742" d="M1441.8-749.613c-2.7-2.921-7.879,3.714-11.318,2.7a3.605,3.605,0,0,0,3.561,2.033c-8.01,9.864-15.571-3.22-5.216-14.2-13.937,5.679-14.7,23.236-4.065,25.649a12.116,12.116,0,0,0,3.3.252,7.053,7.053,0,0,1-2.143,3.316c6.481-.227,7.914-5.675,10.756-10.629,2.946-5.142,6.574-10.852,10.12-6.958C1445.8-749.436,1444.488-750.825,1441.8-749.613Z" transform="translate(-6.203 -4.757)" fill-rule="evenodd" fill="url(#linear-gradient-4)"/>
      <path id="Path_12743" data-name="Path 12743" d="M1419.744-755.44c-3,1.775-4.531,4.651-4.885,8.412a14.155,14.155,0,0,1,2.553-4.223A8.941,8.941,0,0,1,1419.744-755.44Z" transform="translate(-4.782 -6.722)" fill-rule="evenodd" fill="url(#linear-gradient-5)"/>
      <path id="Path_12744" data-name="Path 12744" d="M1457.246-762.162c-1.461-3.164-4.167-4.981-7.872-5.715a14.166,14.166,0,0,1,3.942,2.969A8.94,8.94,0,0,1,1457.246-762.162Z" transform="translate(-23.436)" fill="#ffb600" fill-rule="evenodd"/>
    </g>
  </g>
</svg>
