<svg id="home_gray" xmlns="http://www.w3.org/2000/svg" width="156.305" height="156.305" viewBox="0 0 156.305 156.305">
  <g id="noteamlogo" transform="translate(0 0)">
    <path id="Path_11298" data-name="Path 11298" d="M15.771,0H140.533A15.771,15.771,0,0,1,156.3,15.771V140.534A15.771,15.771,0,0,1,140.533,156.3H15.771A15.771,15.771,0,0,1,0,140.534V15.771A15.771,15.771,0,0,1,15.771,0Z" transform="translate(0 0)" fill="#262629"/>
  </g>
  <path id="Path_11769" data-name="Path 11769" d="M43.8,45.459V29.065a2.631,2.631,0,0,0-2.732-2.732H30.137A2.631,2.631,0,0,0,27.4,29.065V45.459a2.749,2.749,0,0,1-.768,1.879,2.524,2.524,0,0,1-1.964.854H5.545a2.631,2.631,0,0,1-2.732-2.732V17.452L34.235-8.506A3.032,3.032,0,0,1,35.6-8.848a3.031,3.031,0,0,1,1.366.342L68.391,17.452V45.459a2.631,2.631,0,0,1-2.732,2.732H46.531a2.524,2.524,0,0,1-1.964-.854A2.749,2.749,0,0,1,43.8,45.459Z" transform="translate(42.728 56.369)" fill="#6e6f6f"/>
</svg>
