<svg xmlns="http://www.w3.org/2000/svg" width="23.178" height="23.173" viewBox="0 0 23.178 23.173">
  <path id="instagram" d="M11.589-6.547A5.932,5.932,0,0,0,5.648-.606a5.932,5.932,0,0,0,5.941,5.941A5.932,5.932,0,0,0,17.531-.606,5.932,5.932,0,0,0,11.589-6.547Zm0,9.8A3.87,3.87,0,0,1,7.727-.606a3.866,3.866,0,0,1,3.863-3.863A3.866,3.866,0,0,1,15.452-.606,3.87,3.87,0,0,1,11.589,3.256ZM19.159-6.79a1.386,1.386,0,0,0-1.386-1.386A1.386,1.386,0,0,0,16.388-6.79,1.383,1.383,0,0,0,17.774-5.4,1.383,1.383,0,0,0,19.159-6.79Zm3.935,1.406a6.858,6.858,0,0,0-1.872-4.855,6.9,6.9,0,0,0-4.855-1.872c-1.913-.109-7.648-.109-9.561,0a6.893,6.893,0,0,0-4.855,1.867A6.88,6.88,0,0,0,.079-5.389c-.109,1.913-.109,7.648,0,9.561A6.858,6.858,0,0,0,1.951,9.027,6.912,6.912,0,0,0,6.806,10.9c1.913.109,7.648.109,9.561,0a6.858,6.858,0,0,0,4.855-1.872,6.9,6.9,0,0,0,1.872-4.855C23.2,2.258,23.2-3.471,23.094-5.384ZM20.623,6.224a3.91,3.91,0,0,1-2.2,2.2c-1.525.6-5.145.465-6.831.465s-5.31.134-6.831-.465a3.91,3.91,0,0,1-2.2-2.2c-.6-1.525-.465-5.145-.465-6.831s-.134-5.31.465-6.831a3.91,3.91,0,0,1,2.2-2.2c1.525-.6,5.145-.465,6.831-.465s5.31-.134,6.831.465a3.91,3.91,0,0,1,2.2,2.2c.6,1.525.465,5.145.465,6.831S21.228,4.7,20.623,6.224Z" transform="translate(0.002 12.193)" fill="#fff"/>
</svg>
