<svg xmlns="http://www.w3.org/2000/svg" width="158.71" height="181.383" viewBox="0 0 158.71 181.383">
  <path id="Path_12731" data-name="Path 12731" d="M79.355,74.067a44.963,44.963,0,0,0,22.85-6.022,44.115,44.115,0,0,0,16.473-16.473,44.963,44.963,0,0,0,6.022-22.85,44.963,44.963,0,0,0-6.022-22.85A44.115,44.115,0,0,0,102.205-10.6a46.359,46.359,0,0,0-45.7,0A44.115,44.115,0,0,0,40.032,5.871a44.963,44.963,0,0,0-6.022,22.85,44.963,44.963,0,0,0,6.022,22.85A44.115,44.115,0,0,0,56.505,68.044,44.963,44.963,0,0,0,79.355,74.067ZM111.239,85.4h-6.022a61.83,61.83,0,0,1-51.723,0H47.471A46.464,46.464,0,0,0,23.736,91.78,47.08,47.08,0,0,0,6.377,109.139,46.464,46.464,0,0,0,0,132.875v14.879A16.4,16.4,0,0,0,4.96,159.8,16.4,16.4,0,0,0,17,164.758h124.7a16.934,16.934,0,0,0,17-17V132.875a46.464,46.464,0,0,0-6.377-23.736A47.08,47.08,0,0,0,134.975,91.78,46.464,46.464,0,0,0,111.239,85.4Z" transform="translate(0 16.625)" fill="#252b72"/>
</svg>
